<svg id="Camada_1" xmlns="http://www.w3.org/2000/svg" width="150" height="135"><style>.st0{opacity:.6;fill:#fff}</style><path class="st0" d="M93.1 106.8c-.5-1.1-.9-2.2-1.3-3.3l-.2-.6v-.1c0-.1-.1-.2-.2-.3l-.1-.1-.4.5c-.5.9-1.2 1.7-2 2.5l-.3.3c-.7.6-1.4.9-2.2 1.3-.5.2-1 .5-1.4.7l-.5.3h1.4c2 .2 3.6.5 5 1.2.5.3.6.7.6 1.3v.2h-.1s-.1 0-.2-.1c-1.9-.7-3.9-1.2-5.8-1.7-.5-.1-1.1-.3-1.6-.4h-.2c-.1 0-.2.1-.3.3 0 .2-.1.7.4.8l.9.3 1.8.6c1.6.5 3.2 1 4.6 2 .2.1.3.2.5.2s.4-.1.6-.2c1.1-.5 1.4-1.4 1-2.5-.3-.9-.2-1.7.4-2.4-.3-.1-.3-.4-.4-.8zm-20.5 2.7c-.7.1-1.3.2-1.9.2-.5 0-1 0-1.4-.1-.2 0-.2-.1-.2-.2v-.1h.1c.4-.1.9-.2 1.3-.3 1.2-.3 2.5-.6 3.8-.6v-.2h.2v-.3h-.2c-.6-.1-1-.4-1.5-.7-.2-.1-.4-.2-.5-.3-1.5-.8-2.6-1.9-3.4-3.3-.2-.4-.6-.8-.9-1.2-.1-.2-.3-.3-.4-.5l-.2-.3-.1.3c-.1.2-.1.4-.2.6-.2.5-.3 1-.5 1.5-.4 1-.4 1.9 0 2.7.2.3.1.6-.2.9-.3.3-.6.6-.9 1-.2.2-.4.4-.6.7-.1.1-.3.3-.2.5 0 .1.1.3.1.4 0 .4.1.8.6 1.1v2.7c0 .2 0 .4.2.5.4.3 1 .4 1.4.5.2-.1.3-.3.4-.5 0-.1.1-.2.1-.2 0-.1.1-.1.1-.2v-.1c.4-.2.8-.5 1.2-.8.5-.4 1-.7 1.6-1 .6-.3 1.3-.6 1.9-.9 1.3-.7 2.7-1.3 4.2-1.6l1.2-.2-1.2-.2c-1.2 0-2.4 0-3.9.2zm9.3-.7c0-.2-.1-.3-.1-.4-.1-.1-.2-.1-.3-.1h-.2c-.4.1-.8.1-1.3.1h-1.6c-.2 0-.2.1-.3.3 0 .3.2.6.5.6.4.1.9.2 1.4.2.5 0 .9 0 1.4-.1.6 0 .5-.3.5-.6z"/><path d="M119.5 49.6c.4-.1.5-.3.5-.7.1-.9.1-1.8.2-2.8.1-1.3.2-2.5.3-3.8h-.2c-7.3 2.1-15.2 4.2-22.5 6.3-.4.1 0 .7.1 1 1.2 2 2.4 3.9 3.5 5.9.1.2.2.3.3.3.1 0 .3-.2.3-.2 5.9-2 11.7-4 17.5-6zm-1.1-5.3c.8 0 1.2.4 1.2 1.3 0 .8-.7 1.6-1.4 1.6s-1.3-.6-1.3-1.3c0-.8.7-1.6 1.5-1.6zM41.3 58.5c1.2.2 2.3.3 3.5.5 1.8.2 3.6.5 5.4.7h.1c.2 0 .2-.2.3-.4.5-1.6.9-3.1 1.4-4.7.1-.3 0-.4-.3-.5-3.3-.9-6.7-1.7-10-2.6-3.3-.9-6.7-1.8-10-2.6h-.2c-.1 0-.2 0-.2.1v.3c-.2 2.5-.5 4.9-.8 7.4 0 .3 0 .4.3.5h.2c3.3.4 6.8.8 10.3 1.3zM33.2 52c.3-.3.7-.3 1.1-.3.8 0 1.1.3 1.4 1 .4 1.1.3 2.1-.5 2.8-.6.5-1.4.5-2 0-.9-1-.9-2.6 0-3.5z" opacity=".8" fill="#fff"/><path d="M100.9 86.9c.4-.6.7-1.3 1-1.9 0-.1.1-.2.1-.3.2-.4.3-.8.4-1.3 0-.1 0-.3-.1-.4-.2-.1-.5-.1-.7-.1h-.5c-.1.1.1.3 0 .5v.4c0 .1-.1.3-.2.4l-.3.6c-.4.7-.9 1.4-1.5 1.9-.2-.5-.2-.9 0-1.4 0 0 0-.1.1-.1.1-.3.3-.5.4-.8 0-.1.1-.2.2-.2v-.1c0-.3-.4-.8-.8-1.1l-.3-.3c-.1-.1-.2-.1-.3-.1h-.5c-.4 0-.9-.1-1.3-.2h-.1c-.7-.2-1.3-.4-2-.7l-.6-.3c-.8-.4-1.6-.8-2.4-1.4-.6-.4-1.1-.8-1.7-1.2-.4-.3-.8-.5-1.1-.8-.6-.4-1.1-.8-1.6-1.3l-.1-.1c-.1-.1-.2-.1-.2-.2-.1-.1-.2-.1-.2-.2l-.3-.3c0-.1-.1-.1-.1-.2s-.1-.1-.1-.2c-.7-.9-1.6-1.8-1.9-3-.4 1-.9 1.8-1.4 2.5-.2.3-.5.6-.7.8-1.1 1.1-2.4 1.9-3.8 2.3-1 .3-2 .4-3.1.4.3-.2.6-.5.9-.7.1-.1.2-.1.3-.2.9-.8 1.8-1.4 2.6-2.3 0 0 .1 0 .1-.1 0 0 .1-.1.1-.2v-.1c-.1 0-.2.1-.3.2-.7.4-1.5.8-2.2 1.2-.1.1-.2.1-.3.2l-.6.3c-.3.2-.6.3-1 .4-1.6.6-3.2 1.1-4.9 1.2-.9.1-1.9.2-2.8.3s-1.9.2-2.8.2c-.6 0-1.2.1-1.9.1h-1.3c-.2 0-.4 0-.5.1-.1 0-.2 0-.3.1-1.5.4-3 .9-4.4 1.6-.4.2-.8.4-1.1.6-.2.1-.5.3-.7.5l-.3.3c-.3.2-.5.5-.7.7 0 0 0 .1-.1.1v.6c0 .3.1.6.2 1 .6 1.6 1.4 3 2.4 4.4.1.2.3.4.5.5l.7.4c.4.2.8.2 1.3.2.6 0 1 .2 1.2.8.6 1.6 1.8 2.9 3.2 3.8.1.1.2.1.3.2.1.1.2.1.3.2.4.2.8.5 1.3.8.1.1.3.2.4.3.5.4 1 .8 1.5 1.3l.3.3c.5.5.9.9 1.3 1.4.1.1.2.2.3.4.2.2.4.5.6.7.5.6 1 1.2 1.4 1.9.1.1.1.2.2.3.2.3.3.7.5 1 .2.6.7 1.1 1.2 1.4.3.2.5.4.8.5.2.1.4.2.7.4.3.2.6.4.9.5.2.1.5.2.7.3h.2c1 .1 2 .2 3 .1.3 0 .6-.1.9-.1.3 0 .6-.1.8-.1h.1c.3 0 .6-.1.8-.2.7-.1 1.4-.3 2.1-.5.2-.1.4-.1.7-.2.1 0 .1 0 .2-.1.2-.1.4-.1.6-.2.1 0 .1-.1.2-.1s.2-.1.3-.1c.1 0 .2-.1.3-.1.3-.1.6-.3.9-.4.4-.2.7-.4 1.1-.6.2-.1.4-.2.5-.4.5-.3.9-.7 1.3-1.1.2-.2.4-.4.5-.6.8-1.1 1.5-2.2 2.1-3.4l.3-.6c.2-.3.3-.7.5-1 0-.1.1-.2.1-.3.2-.5.3-1.1.4-1.8-.2.1-.4.1-.5.2-.3.1-.5.2-.8.3s-.5.1-.8.2h-.2c-.3 0-.5-.1-.6-.4-.1-.3 0-.4.2-.5h.3c.1 0 .1 0 .2-.1.1 0 .1 0 .2-.1.8-.3 1.7-.6 2.4-1.2.5-.3.9-.7 1.3-1.1.2-.1.3-.3.5-.5.7-.7 1.3-1.5 1.6-2.5V89l.3-.6c.1-.2.2-.3.4-.3s.4 0 .6-.1h.3c1.1.5 1.8-.3 2.4-1.1zm-44.1 1.7c-.3.1-.3-.3-.4-.5-.2-.5-.6-.9-1.2-1.2-1.2-.6-1.7-1.7-1.4-2.9.1-.3.3-.5.6-.6.2-.1.3.2.4.3.4.4.5 1 .7 1.6.1.4.3.8.7 1 .6.4.7 1 .7 1.6 0 .3.2.6-.1.7zm4.1-4.7s-.1 0 0 0c.5-1.1 1.5-1.8 2.4-2.5.1-.1.3 0 .4 0 3 .2 5.9.5 8.9.9.8.1 1.6 0 2.2-.8.4-.5.8-1 1.1-1.5.1-.2.3-.6.6-.5.3.1.4.4.3.8-.2 1.5-.8 2.7-2.1 3.6-.2.1-.2.2 0 .3 1.1 1.3 1.4 2.9 1.6 4.5.1.7-.1 1.5-.4 2.1-.2.3-.1.5.2.7l.9.9c.3.3.5.3.8 0l.6-.6c.6-.7 1.2-1.5 2-1.9.5-.3 1.1-.3 1.5.1.2.2.4.4-.1.6-.8.3-1.2 1-1.7 1.6l-.9 1.5c-.7 1.1-2.1 1.3-3 .4-.4-.4-.8-.7-1.2-1.1-.5-.7-1.2-.8-2-.8.2-.6.6-1.1 1-1.4.6-.5.8-1.2.7-2-.1-1-.2-2-.5-2.9-.2-.6-.5-1.2-1.2-1.5-.3-.1-.5-.1-.8-.2-2-.3-4.1-.7-6.1-.9-1.6-.1-3.2 0-4.8.3-.2.3-.3.3-.4.3zm7.2 3.7c-1 .3-1.9.2-2.7-.4-.8-.7-1.6-.8-2.6-.5-.3.1-.5 0-.7-.2-.4-.3-.3-.5.1-.7.6-.3 1.3-.4 1.8-.5.5.1.9.1 1.3.2 1.5.4 3.1.3 4.6 0 .8-.1 1.5-.2 2.3.1.1 0 .3.1.4.1.2.2.5.3.4.6 0 .2-.4.2-.6.2-.7.1-1.5.2-2.2.3-.2 0-.4.1-.6.2-.4.1-.9.5-1.5.6zM82 100c-.1 0-.2 0-.3-.1-1-.7-2.1-.6-3.2-.8-.2 0-.4 0-.5.1-.9.3-1.8.7-2.7 1.1-.8.4-1.2 1-1.5 1.8-.1.5-.2 1-.4 1.5-.1.2-.1.3-.4.3-.2 0-.2-.2-.3-.3-.3-.4-.3-1-.4-1.5.2-.6.2-1.3.4-2 .5-1.1 1.6-1.3 2.5-1.6 1.2-.4 2.4-.6 3.6-.6 1.3 0 2.5.4 3.3 1.5.3.4.3.5-.1.6zm1.7-4c-.5.2-.9.5-1.4 0-.1-.1-.3-.1-.5 0-1.2.2-2.3.6-3.4 1.1-.9.4-1.7.3-2.5-.2-.9-.6-1.7-.7-2.7-.2-.9.5-1.9.7-2.9.4-.1 0-.2-.1-.3-.2-.4-.4-.4-.4 0-.7.2-.1.4-.2.5-.4.3-.3.6-.3 1-.2.5.1 1-.1 1.4-.3 1.1-.8 2.2-.5 3.2 0 0 0 .1 0 .1.1.7.6 1.4.9 2.2.1.3-.3.9-.2 1.4-.3 1.1-.1 2.2-.2 3.2-.7.2-.1.3-.1.4.1.2.3.5.5.5.9 0 .3 0 .4-.2.5zm6.9-8.1c-.3.2-.5.3-.8.3-.4-.1-.9-.1-1.3-.1-.6 0-1.2-.1-1.6-.5-.4-.3-.8-.3-1.3-.3-.7 0-1.3-.4-1.9-.8-.3-.2-.4-.5-.4-.9-.1-.8-.1-.8-.9-1-1.1-.3-2-.8-2.6-1.7-.3-.5-.5-1-.6-1.6-.1-.5-.1-1-.1-1.6 0-.1 0-.4.2-.4s.3 0 .5.2c.2.3.4.5.5.9l.3.9c.4 1.2 1.4 1.2 2.3 1.4 3.2.6 6.4.7 9.7.2.3 0 .5-.1.8.2.2.2.1.3-.1.4-.5.2-1 .4-1.5.5-1.5.5-3 1-4.6 1.1-.7 0-1.3-.2-2-.3-.2 0-.3-.1-.5 0 .1.5.4.8.8 1 .6.4 1.2.7 1.9.7 1.3 0 2.5-.1 3.7-.4.2 0 .4-.1.6-.2l2.1-1.2c.3-.1.5-.1.6 0-1.4 1.1-2.6 2.2-3.8 3.2zM51.1 20.4c-1 .4-1.7 1.3-2.6 1.8-.2.1-.1.3 0 .4.9 1.1 1.9 2.1 2.8 3.2.1.1.1.2.2.3.1-.1.2-.1.2-.1.4-.3.9-.5 1.3-.8.1-.1.1-.2.1-.3-.5-1.4-.9-2.9-1.6-4.3 0-.3-.1-.3-.4-.2zm-3.9.7c.1.1.2.2.4.1.8-.5 1.8-.8 2.5-1.4 1.9-1.5 3.8-3.1 5.6-4.8.3-.3.5-.5.4-.8 0-.3.1-.6-.2-.7-.2-.1-.3.1-.5.2s-.4.2-.5.3c-1.8.9-3.5 2-5.4 2.8-1.3.5-2.6 1.1-3.9 1.5-.1 0-.5 0-.2.4l1.8 2.4zm.2 7.3c-1.5-1-3-1.9-4.3-3-.1.5-.2.9-.3 1.3 0 .2-.1.3-.3.3-.4.1-.5-.3-.7-.5-.2-.2-.3-.4-.2-.7.3-.7.5-1.4.8-2.1.3-.7.3-.7.9-.3l.1.1c1.3 1.4 2.8 2.5 4.5 3.3.9.4 1.5.5 2.3-.1 0 0 .1-.1.2-.1.1-.1.2-.2.1-.3-.2-.3-.2-.7-.5-1-.9-.8-1.7-1.6-2.6-2.4-1.2-1.2-2.4-2.4-3.3-3.8l-.9-1.2c-.5-.5-1.4-.4-1.7.2-.7 1.3-1.6 2.4-2.3 3.7-.8 1.4-1.8 2.7-2.5 4.1-.1.3-.1.5 0 .8.3.8.8 1.6 1 2.5 0 .2.1.4-.2.5-.2.1-.3 0-.4-.2-.5-.9-1-1.7-1.5-2.6-1.6-2.9-2.9-5.9-4.9-8.6-.1-.1-.1-.4-.4-.3-.2.1-.4.3-.3.6.2 1.1.3 2.1.6 3.2 1.2 4.5 2.7 8.8 4.1 13.2.1.4.2.3.5.2 3.7-2.1 7.4-4.2 11.1-6.2.1 0 .6-.3 1.1-.6zM38.2 44c-.9 1.2-1.3 2.7-1.5 4.1-.2.3-.2.6.3.6.3 0 .6.1.9.2 2.3.6 4.6 1.2 6.9 1.7.2.1.4.2.6.1.1 0 .1-.1.1-.2v-.1c.5-1.6.9-3.2 1.4-4.7.1-.2.1-.5.3-.6.7-.5.9-1.2 1-2 0-.3.1-.6.1-.9 0-.4.2-.6.6-.8 1.7-.8 3.2-1.9 4.4-3.3.3-.3.6-.7.8-1.1.9-2 2-3.9 3.2-5.7 1.3-2.1 2.8-4 4.6-5.6.5-.4.7-.9.8-1.5.1-.5-.1-.9-.4-1.1-.3-.2-.8-.4-1.2 0-1.9 1.4-4 2.3-6.1 3.3-.9.4-2 .8-2.5 1.9 0 0-.1.1-.2.1-.7.4-1.4.7-2.2.8-.2 0-.4 0-.7.1-4.4 2.8-8.9 5.5-13.3 8.3-.3.2-.3.3-.2.6.8 1.7 1.6 3.5 2.6 5.1-.1.2-.1.5-.3.7zm7.1 6.6s0 .1 0 0c0 .1 0 0 0 0zm58.9-5.6c2.5-.8 5-1.5 7.5-2.2.4-.1.5-.3.3-.6-1.1-2.8-2.2-5.7-3.5-8.4-.2-.4-.2-.7-.1-1.1.6-1.3.8-2.7.6-4.1-.1-.7 0-1.5 0-2.2-.2-2-.8-3.8-1.3-5.8-.5-2.2-1.6-4.1-2.5-6.1-.6-1.4-1.5-2.6-2.3-3.9-.4-.8-.9-1.5-1.4-2.3-.4-.7-.8-1.4-1.6-1.7-.2-.1-.5-.3-.6-.1-.2.3-.4.6-.2.9.3.7.6 1.3.8 2 .8 1.8 1.7 3.6 2.2 5.5.2.8.4 1.5.4 2.3 0 .3 0 .6-.3.7-.3.1-.3-.2-.5-.4-.6-.6-1.3-1.2-2.2-.9-.2.1-.5.1-.8.1-.2 0-.4-.1-.5-.3-.1-.2.1-.3.3-.4.1-.1.3-.2.4-.3.2-.2.3-.4.1-.6-.5-.6-.9-1.2-1.5-1.7-1.2-.9-2.4-1.9-3.7-2.7l-.6-.3c-2.3-1.4-4.6-2.6-7-3.8-.3-.2-.7-.3-1-.3-.2 0-.5 0-.6.3-.1.3-.1.6.1.8.3.3.5.6.9.8 1 .6 2.1 1.1 3.1 1.8 1.9 1.4 3.7 2.9 5.5 4.4.6.5 1.1 1 1.6 1.5.3.3.6.6.9 1 .1.1.2.2.2.4v.1c0 .1-.1.2-.2.3-.3.3-.6.1-.9 0l-.3-.3-.1-.1-.7-.7-.3-.3c-1.4-1-2.8-2.1-4.2-3.1S87.8 11 86.4 10c-.8-.6-1.6-1.1-2.5-1.5-.3-.1-.5-.1-.7.1-.3.3-.3.6-.1 1 .3.6.7 1 1.1 1.4.6.5 1.3 1 1.8 1.6 2.6 2.9 5.3 5.7 7.8 8.7.2.2.3.4.3.7.1.5-.2.7-.6.5-.1 0-.2-.1-.3-.1-3.1-1.8-6.2-3.5-9.2-5.6-.9-.6-1.8-1.1-2.7-1.5-.3-.1-.6-.3-.9.1-.2.3 0 .8.2 1 1.1.8 2.1 1.8 3.2 2.7 2.4 2.1 4.9 4 6.6 6.7.3.4 1.2.5 1.6.3 1.1-.7 2.2-1.1 3.4-1h.3c.1 0 .2 0 .2.1l.1.1c.1.3-.2.4-.4.5L92.2 28c-.3.2-.5.2-.9.1-.5-.1-1-.3-1.6-.3-2.3 0-4.6.3-6.9.7-.5.1-1 .1-1.5.4-.3.2-.4.5-.3.7 0 .2.1.5.4.6 1.4.3 2.9.6 4.3.9.5.1 1 .3 1.6.3 1.6 1 3.3 2.1 4.8 3.2 1 .7 2 1.2 3.2 1.4.5.1 1.1.2 1.6.4.7.2 1.6.2 2.1.6.5.4.8 1.2 1.1 1.9.2.4.4.6.9.5.4-.1.5.1.7.4.6 1.7 1.2 3.3 1.8 5 .3.2.4.3.7.2z" opacity=".2" fill="#fff"/><path d="M70.8 125.8c-.2-.2-.3-.3-.3-.6-.1-.7 0-1.3.1-2 .2-1.3.6-2.5.5-3.8 0-.5-.1-1-.6-1.2-.6-.3-1 0-1.4.4-.7.7-1.4 1.5-2 2.2-.6.8-1.3 1.6-1.9 2.4-.1.1-.2.4-.4.3-.2-.1-.1-.3-.1-.4 0-.6.1-1.1.2-1.7.1-.7.2-1.5 0-2.2-.2-.9-.8-1.1-1.5-.6-.2.1-.3.3-.5.5-.6.7-1.1 1.4-1.5 2.1-1.2 1.8-2.2 3.7-3.6 5.3-.3.3-.5.6-.8.9-.2.4-.3.8-.1 1.2.2.3.6.5 1 .4.4 0 .6-.3.9-.6 1.1-1.5 2.2-2.9 3.2-4.4.1-.1.1-.2.3-.2 0 .2 0 .4-.1.6 0 .7-.2 1.4 0 2.1.2.8.8 1.2 1.6.8.4-.2.7-.5 1.1-.8.6-.6 1.2-1.2 1.7-1.9.6-.7 1.2-1.5 1.8-2.3.2.6.1 1.2.1 1.7-.1 1-.2 1.9-.1 2.9.1.6.5 1 1 1s1-.1 1.4-.4c.6-.3.6-1.1 0-1.7zm44.7.3c-.3 0-.5-.2-.8-.4-.7-.6-1.3-1.3-1.9-2-.5-.6-.5-.6.1-1 1.3-.9 1.8-2.2 1.7-3.7-.1-1.1-.7-1.8-1.7-2-.9-.1-1.6.2-2.2.7-.1.1-.2.2-.5.1-.5-.4-1.1-.3-1.5.2-.3.3-.4.6-.5 1-.6 2.6-1.3 5.2-1.9 7.8-.2.9.2 1.3 1.2 1.2.8-.1 1.2-.6 1.4-1.6.1-1 .3-2 .6-3.1.8 1 1.5 1.9 2.2 2.8.7.9 1.5 1.7 2.6 2.1.7.3 1.4.1 2-.4.3-.3.4-.7.3-1.1-.4-.4-.6-.6-1.1-.6zm-3.1-6.1c-.1.2-.2.5-.4.7-.7.8-1.5 1.4-2.6 1.8.1-.8.3-1.5.6-2.2.3-.7.8-1.2 1.6-1.2.7-.1 1 .3.8.9zm-54.9-2.8c-.3-.1-.7-.2-.9.3-.1.3-.3.2-.5.2-1.3-.2-2.5.2-3.4 1.1-2 1.9-3 4.2-2.9 7 .1 1.8 1.1 2.7 2.9 2.3 3.6-.8 6.3-4.3 6.5-8.2.1-.9-.8-2.4-1.7-2.7zm-.5 4c-.2 1.5-.8 3.1-2.2 4.2-.5.4-1 .7-1.7.7-.8.1-1.4-.4-1.3-1.2.1-1.6.6-3.2 1.7-4.4.7-.8 1.7-1.1 2.7-.7.7.3.9.6.8 1.4zm44.6-1c.4-.1.8 0 1.3 0 1.1 0 2.2 0 3.3-.4.4-.1.8-.3 1-.7.4-.6.2-.9-.4-1-1.4-.1-2.8-.2-4.2 0-.8.1-1.6.3-2 1.3l-.1.1c-1 .2-1.3 1-1.6 1.8l-1.5 5.4c-.1.4 0 .7.4.9.3.2.6.2.9.1 1.7-.4 3.3-.9 5.1-.7.2 0 .4 0 .7-.1.4-.2.7-.8.6-1.2-.1-.5-.4-.6-.8-.7-.3 0-.6-.1-.9-.1-1.1 0-2.1.1-3.2.3.2-1.2.2-1.3 1.4-1.3.8 0 1.7 0 2.4-.4.5-.2.9-.6.9-1.2 0-.4-.1-.6-.5-.6h-1c-.8.1-1.5.1-2.3.2.1-.3.2-.5.3-.7 0-.2-.3-.8.2-1zM48.9 118c-.6-.4-1.3-.6-1.8-.6-1.4.1-2.3.5-3.2 1.2-1.8 1.6-2.8 3.6-3.3 5.9-.2.9-.1 1.7.4 2.5.4.6.8.8 1.5.7 1.6-.3 3.1-.8 4.5-1.6.4-.2.8-.5 1.2-.9.3-.3.4-.6.4-1.1 0-.4-.2-.5-.5-.5-.4 0-.7.1-1 .2-1.1.4-2.1.9-3.2 1.1-.5.1-.7 0-.8-.5v-.6c.2-.9.5-1.7 1-2.5.3-.6.7-1.1 1.3-1.5.7-.5 1.5-.7 2.3-.2.3.2.5.1.8-.1.4-.2.6-.6.8-1 0-.2-.1-.4-.4-.5zm47.9.6c-1.4-1.2-3.5-1.1-4.8.3-.8.8-.9 1.7-.4 2.7.4.8.9 1.5 1.4 2.1.4.5.8 1 1.1 1.5.2.4.1.6-.3.8-.2.1-.5.1-.7 0-.7-.3-1.4-.7-1.9-1.2-.2-.2-.4-.4-.4-.6-.1-.4-.3-.6-.6-.6-.4 0-.8 0-1.1.4-.4.7-.3 1.4.4 2 1.4 1.3 3.1 1.8 4.8 2 1.6 0 2.5-1.4 2-2.7-.2-.6-.6-1.1-1-1.6-.6-.8-1.3-1.6-1.8-2.5-.5-.6-.2-1.1.5-1.4.7-.2 1.3 0 1.9.4.7.5 1.2.2 1.4-.6.1-.5-.2-.8-.5-1zm21.8-67.5c.7-.2 1.4-.6 2.2-.8.4-.1.5-.4.5-.7.2-3.1.5-6.3.7-9.4 0-.4 0-.5-.5-.4-2.3.7-4.7 1.5-7 2.2-.7.2-.7.2-1.1-.5-1.2-2.7-2.1-5.5-3.1-8.2-.2-.6-.2-1.1 0-1.6.3-1 .1-1.9.1-2.9v-.1c-.2-2.7-.6-5.4-1.3-8-.6-2.3-1.5-4.5-2.6-6.6-1.2-2.2-2.4-4.4-3.8-6.6-.6-.9-1.2-1.7-2.2-2.2-.3-.2-.7-.3-1.1-.3-.5 0-.7.1-1 .5-.5.6-.7 1.5-.4 2.2 1 2.1 1.9 4.3 2.7 6.5 0 .1.1.2.2.3-.2 0-.3-.1-.3-.2-1.5-1.6-3.3-2.9-5.2-4.2C93 8.4 90.3 7 87.7 5.6c-.4-.2-.7-.3-1.1-.3-.7-.1-1.3-.1-2-.2-1-.1-1.8.5-1.8 1.5 0 .6-.2.7-.7.7-.4 0-1 .6-1 1-.1 1.3.2 2.3 1.2 3.2 2.3 2.1 4.5 4.4 6.7 6.6h.1c.1 0 .1.1.1.2h-.1c-.1 0-.1 0-.2-.1-.3-.2-.7-.4-1-.6-1.6-1-3.1-2.1-4.6-3.1-.7-.5-1.5-.8-2.4-.9-.8-.1-1.5.2-2 .7-.4.4-.5.8-.5 1.3.1.8.6 1.2 1.2 1.6 2.6 1.7 4.9 3.8 7.1 6.1l.6.6c.6.5 1 1.2 1.4 1.8.2.3.1.4-.2.4-2.2 0-4.3.6-6.4 1.1-.9.2-1.7.5-2 1.5-.3 1.1-.5 1.7.8 2 2.6.7 5.2 1.6 7.7 2.7.2.1.4.2.6.4.6.5 1.2 1.1 1.9 1.6 2 1.3 4 2.5 6.3 3 .3.1.5.2.8.3.3.1.4.2.5.5.1.9.7 1.4 1.6 1.7.1 0 .2.1.3.1.3.1.4.3.5.6.3 1.2.7 2.5 1.1 3.7.1.4 0 .5-.4.6-1.9.6-3.8 1.1-5.7 1.7-.7.2-.7.2-.3.8 1.6 2.8 3.1 5.6 4.7 8.4.7 1.2.7 1.2 1.9.6.1-.1.3-.3.4-.1.1.2.3.5.1.7-.6.7-1 1.5-1.5 2.2-.2.2-.2.4 0 .6.5.9 1 1.7 1.6 2.6.1.1.2.2.1.3-.2.6-.4 1.3-.6 1.9-.3-1.4-.9-2.6-1.6-3.7-.9-1.5-2.1-2.8-3.2-4.2l-.6-.6c-1-1.1-2.4-1.7-3.6-2.5-.6-.3-1.1-.5-1.8-.7-1.9-.4-3.9-.6-5.8 0-.4.1-.6 0-.8-.3-.5-.7-.9-1.4-1.5-1.9-1.6-1.2-3.2-2.4-5.1-3-1.5-.5-2.9-.8-4.5-.9-.8 0-1.6 0-2.4.1-2 .2-4.1.4-5.9 1.5-.4.2-.8.3-1.1.6-1.9 1-3.7 2-5.2 3.5-1.6 1.6-3.2 3.2-4.6 4.9-1.7 2-2.9 4.2-4 6.5-.1.2-.1.4-.4.5-.2-1.3-.4-2.6-.6-3.8 0-.2.1-.2.3-.2.5 0 .9.1 1.4.1.3 0 .5 0 .6-.4.1-.5.2-1.1.3-1.6.4-2 1-4 1.6-6 .1-.4 0-.5-.4-.6-2-.5-3.9-1-5.9-1.5-.4-.1-.5-.2-.4-.6.4-1.5.6-3.2 1.3-4.7.1-.2.1-.3.3-.4.5-.4.9-.9.8-1.6 0-.5.2-.9.7-1.1.9-.4 1.8-1 2.7-1.5.7-.4 1.3-1 1.7-1.7 1.7-3.1 3.1-6.4 5.1-9.4.2-.3.3-.5.5-.8 1.3-1.4 2.5-2.8 4-4 .5-.4.6-.9.6-1.5 0-.7-.4-1.1-.8-1.6-.4-.4-.8-.8-1.4-.8-.1 0-.3 0-.5-.1.1-.2.3-.2.4-.3 1.7-1.1 3.5-2.3 5.2-3.4 2.1-1.4 4.2-2.7 6.4-4.1.3-.2.4-.3.1-.6l-.2-.2c-.4-.5-.4-.5-1-.1-5.9 3.7-11.9 7.4-17.8 11.1-.5.3-.5.3-.8-.3-.6-1.4-.9-2.8-1.4-4.2-.1-.3 0-.5.2-.7 1.5-1.2 2.9-2.5 4.2-3.8.6-.5.9-1.2 1-1.9.1-.9-.5-1.3-1.3-1-.4.2-.8.3-1.1.5-3.5 1.9-7.3 3.3-11.1 4.4-.2.1-.4.1-.6-.1-.4-.5-1-.7-1.4-1.1-.1-.1-.2-.1-.3-.1-.5.1-1.1.3-1.4.8-.8 1.2-1.8 2.3-2.6 3.5-.9 1.5-1.7 2.9-2.7 4.3-.2.3-.3.3-.4 0-1.1-1.9-2.2-3.8-3.3-5.8-.3-.6-.7-1.2-1.2-1.7-.5-.6-1.1-.9-1.8-.8-.1 0-.3 0-.4.2-.1.6-.4 1.2-.3 1.7.2 1.4.4 2.8.8 4.2.6 2.4 1.3 4.7 2 7s1.5 4.6 2.2 6.8c.1.2.2.4-.1.5-.3.2-.9.3-1 .6-.1.4.3.8.4 1.2v.1c.1.3.2.7.4.9.3.1.6-.3.8-.4.2-.1.3-.1.4.1.6 1.5 1.3 3 2 4.5.1.2.1.5 0 .7-.5 1.2-.8 2.5-1 3.7-.1.4-.2.4-.5.3-1.4-.4-2.9-.7-4.3-1.1-.6-.2-.6-.2-.7.5-.3 3.4-.6 6.9-.9 10.3 0 .3 0 .4.3.5 1 .1 2 .3 3 .4.2 0 .3 0 .3.3-.2 1.2-.4 2.3-.6 3.5-.1.3 0 .6.2.8.3.4.7.9 1 1.4.2.3.4.7.2 1.1-.1.2-.2.4-.2.6 0 2.1 0 4.3.1 6.4 0 1 0 2.1.1 3.1 0 2.8.2 5.5.3 8.3 0 1.4-.2 2.7-.1 4 0 .3.1.5.4.6l2.4.9c.4.1.8.4 1 .8.2.4.2.7.2 1.1 0 .4.1.6.4.8 1.3.9 2.5 1.9 3.8 2.8 3.4 2.5 6.7 5 10.1 7.4.3.2.4.4.2.8-.2.3-.3.7-.5 1-.1.3-.1.5.2.7.4.3.8.6 1.2 1 .3.3.3.7.2 1.1-.1.2-.4 0-.7 0-.2 0-.3 0-.5-.1-1.6-.3-3.2-.7-4.8-.8-2.6-.2-5.2-.4-7.8-.4-.1 0-.3-.1-.4.1 0 .2-.1.5.2.6.1.1.3.1.4.2 1.5.5 2.8 1.2 4.2 2 .9.5 1.7 1.1 2.7 1.4.2.1.3.2.6 0-1.4-1.1-2.9-2.3-4.3-3.4.2-.1.4-.1.5-.1 1.7.1 3.4.4 5.1.8 3.7.9 7.3 1.9 11 3 1.2.4 2.5.5 3.5 1.3.3.2.4.3.4.7.1.1.1.2 0 .2-.1.1-.2-.1-.3-.1-.8-.1-1.7-.1-2.5-.2-2.4-.2-4.8-.6-7.2-.5-1.8 0-3.6-.1-5.4 0-2.6.2-5.1.5-7.7.8-.1 0-.3 0-.3.1 0 .2.1.4.3.4.2 0 .4.1.6.1 1.3 0 2.6 0 3.9.1 3.2.1 6.4-.1 9.6.2 1.2.1 2.3 0 3.4.3 5.3 1 10.6 2 15.9 3.2.6.1 1.3.2 1.9.5-.3.3-.7.3-.8.7-1.1 2.6-1.9 5.4-2.7 8.1-.1.5.2 1 .6 1.1.8.2 1.7-.3 1.8-1.1.1-.6.2-1.1.3-1.7 0-.2.1-.3.3-.3.7-.3 1.4-.6 2-.8 1-.4 1.9-.9 2.7-1.7.7-.7 1.3-1.4 1.3-2.4 0-.3.1-.5.3-.7 1.1-.9 2.2-1.9 3.2-2.9s2-1.9 3.1-2.8c.1-.1.2-.2.4-.2.9.4 1.8.7 2.9 1.1-1.9 1.2-3.8 2.3-5.6 3.4-.1 0-.2.1-.3.1-.7.2-1.3.6-1.7 1-1.9 1.9-2.9 4.2-2.8 7 .1 1.9 1.1 2.7 3 2.3 3.2-.7 5.9-3.8 6.4-7.1.1-.9.3-1.8-.4-2.7-.3-.3-.6-.7-.9-1 .1-.1.1-.1.2-.1 4-2.4 8.4-4 12.8-5.5 5.4-1.8 10.9-3.3 16.3-4.7-.1 0-.3-.1-.4-.1-.4 0-.7.1-1.1.1-1.5.1-3 .3-4.5.7h-.1c-.1.1-.3.1-.5.1h-.2c.3-.3 1.3-1.4 1.6-1.3l.1-.1c.1-.1.2-.2.4-.3.3-.4.6-.7 1-1 .3-.2.5-.3.8-.4.8 0 1.6-1 2.5-1.4 0 0 0-.1-.1-.1-1.2.2-2.5.4-3.6.8-2.5.9-5.2 1.7-7.7 2.8-3.8 1.7-7.7 3.3-11.3 5.3-.1.1-.2.1-.4.2-.1-.9-.2-1.7-.3-2.6 0-.2.1-.2.2-.3 3.3-1.7 6.5-3.4 9.9-4.8l8.4-3.6v.1c-.7 1.1-1.4 2.2-1.9 3.4.2 0 .3 0 .3-.1.6-.6 1.2-1.2 1.7-1.8 1.1-1.2 2.3-2.4 3.6-3.3.1-.1.2-.1.2-.2-.1-.1-.2-.1-.3 0-1.3.3-2.6.5-3.8.8-.4.1-.4 0-.4-.3 0-1 .1-2 .2-3 0-.4.1-.9.3-1.3.5-1.2 1-2.3 1.5-3.5.3-.6.4-1.2.5-1.8.2-1 .3-2 .4-3 .2-1.5.7-3 1-4.5.3-1.9.6-3.9 1.3-5.7.6-1.6 1.3-3.3 1.9-4.9.9-2.2 2.1-4.3 2.6-6.7.2-.8.4-1.6 0-2.4-.2-.4-.3-.9-.4-1.4-.1-.3-.1-.7-.1-1.1.2-1.3.4-2.5-.3-3.7-.2-.3 0-.5.2-.7.5-.5.5-.7.1-1.2-.5-.6-.9-1.2-1.4-1.7-.4-.4-.8-.9-1.2-1.4-.5 0-.5-.1-.2-.2zm-33.4 74.4c-.5.4-1 .7-1.7.7-.8.1-1.4-.4-1.3-1.2.1-1.7.6-3.2 1.7-4.5.7-.8 1.7-1 2.7-.6.6.2.8.5.8 1.4-.2 1.5-.8 3-2.2 4.2zm16.7-85.8c-.1-.3-.3-.5-.7-.4-.5.1-.7-.1-.9-.5-.3-.7-.6-1.5-1.1-1.9-.5-.4-1.4-.4-2.1-.6-.5-.1-1.1-.3-1.6-.4-1.2-.2-2.2-.7-3.2-1.4-1.6-1.2-3.2-2.2-4.8-3.2-.5 0-1-.2-1.6-.3-1.4-.3-2.9-.6-4.3-.9-.3-.1-.4-.3-.4-.6s0-.6.3-.7c.5-.3 1-.3 1.5-.4 2.3-.4 4.6-.6 6.9-.7.6 0 1.1.2 1.6.3.3.1.6 0 .9-.1 1.1-.7 2.2-1.5 3.4-2.2.2-.1.5-.2.4-.5 0 0 0-.1-.1-.1s-.1-.1-.2-.1h-.3c-1.3 0-2.4.4-3.4 1-.4.3-1.3.1-1.6-.3-1.8-2.7-4.3-4.6-6.6-6.7-1.1-.9-2.1-1.9-3.2-2.7-.3-.2-.4-.7-.2-1 .2-.4.6-.2.9-.1 1 .4 1.9.9 2.7 1.5 2.9 2.1 6 3.8 9.2 5.6.1 0 .2.1.3.1.5.2.7 0 .6-.5 0-.3-.1-.5-.3-.7-2.5-3-5.2-5.8-7.8-8.7-.5-.6-1.2-1.1-1.8-1.6-.5-.4-.9-.9-1.1-1.4-.2-.3-.1-.7.1-1 .2-.2.4-.3.7-.1.9.4 1.7.9 2.5 1.5 1.4 1 2.8 2.1 4.2 3.1 1.4 1 2.8 2.1 4.2 3.1l.3.3c.3.2.5.5.7.7l.1.1.3.3c.3.2.6.3.9 0 .1-.1.1-.2.2-.3v-.1c0-.1-.1-.3-.2-.4-.3-.3-.6-.6-.9-1-.5-.5-1-1.1-1.6-1.5-1.8-1.5-3.6-3-5.5-4.4-.9-.7-2-1.2-3.1-1.8-.4-.2-.6-.5-.9-.8-.2-.2-.2-.5-.1-.8.1-.3.4-.3.6-.3.4 0 .7.1 1 .3 2.4 1.2 4.8 2.4 7 3.8l.6.3c1.3.8 2.5 1.7 3.7 2.7.6.4 1 1.1 1.5 1.7.2.2.1.5-.1.6-.1.1-.3.2-.4.3-.2.1-.4.2-.3.4 0 .2.3.3.5.3.3 0 .6 0 .8-.1.9-.4 1.6.2 2.2.9.1.2.2.5.5.4.3-.1.3-.4.3-.7-.1-.8-.3-1.5-.4-2.3-.5-1.9-1.4-3.7-2.2-5.5-.3-.7-.6-1.3-.8-2-.1-.4 0-.7.2-.9.2-.2.4 0 .6.1.8.3 1.2 1 1.6 1.7.4.8.9 1.5 1.4 2.3.7 1.3 1.7 2.6 2.3 3.9.9 2 2 3.9 2.5 6.1.4 1.9 1.1 3.8 1.3 5.8.1.7 0 1.5 0 2.2.2 1.4 0 2.8-.6 4.1-.2.4-.1.7.1 1.1 1.3 2.8 2.4 5.6 3.5 8.4.1.4.1.5-.3.6-2.5.7-5 1.5-7.5 2.2-.4.1-.5 0-.6-.3-1.1-1.4-1.7-3.1-2.3-4.8zM86.2 55.5c1-.3 2-.5 3.1-.2h.1c1.3.4 2.7.7 4 1.3.2.1.4.2.6.4.8.6 1.6 1.3 2.2 2.1 1 1.3 2 2.5 2.9 4-.1 0-.1 0-.2-.1-.3-.1-.7-.3-1-.5-1.1-.7-2.3-1.3-3.5-1.8-.6-.2-1.1-.4-1.7-.5-1.6-.3-3.1-.3-4.7-.2h-1.3c-.3 0-.5-.1-.5-.5 0-1.2.1-2.4-.3-3.6 0-.3.1-.4.3-.4zm-.3 8.9s0-.1 0 0c0-.1 0-.1.1-.2v-1.4.2-1.1.1-.2c0-.4.1-.6.6-.6h2.3c.7 0 1.3 0 2 .1 1.1.1 2.2.3 2.8.8.5.2 1 .5 1.4.7 1.1.7 2.3 1.4 3.4 2.1.2.1.4.3.6.6.4.5.8 1.1 1.2 1.6.1.1.2.2.1.3l-.1.1c-.1 0-.2 0-.3-.1-.5-.3-1-.6-1.5-.8-1.8-1-3.6-1.7-5.6-2.2-.2 0-.3-.1-.5-.1-.6-.2-1.1-.3-1.7-.4l-.8-.2s0 .1.1.1l.1.1.2.2h.1c1.2.6 3.2 1 4.6 1.6h-.1c-.2-.1-.3-.1-.5-.2 0 0-.1 0-.1-.1 0 0 .1 0 .1.1.2.1.3.1.5.2h.1c.1 0 .2.1.3.2.8.4 1.5.9 2.3 1.5l1.4 1.1c2.1 1.5 3.4 3.6 4 6v.3c.1.1.1.3.1.5v.1c0 .4-.3.2-.5.2-1.1 0-2.1-.3-3.2-.6l-.9-.3c-1.1-.4-2.1-.8-3.2-1.2-1.3-.5-2.3-1.4-3.4-2.1-1.8-1.3-3.6-2.6-5.2-4.2-.2-.2-.3-.3-.4-.5-.1-.3-.2-.5-.3-.8-.1-.2-.1-.3-.2-.5 0-.1-.1-.2-.1-.3.2-.3.2-.5.2-.7zm7.8.8h-.1c.1-.1.1 0 .1 0zm-.1-.1c-.1 0-.2-.1-.3-.1h-.1.1c.1 0 .2.1.3.1zm-2.5-.8s-.1 0 0 0c-.1 0 0 0 0 0zm-.6-.2V64h.1s-.1 0-.1.1zm-4.9-8.3v.2c-.1-.1-.1-.1 0-.2zm-.6 11c0-.1.1-.2.2-.2 0 0 .1 0 .1.1.4.8.9 1.5 1.6 2.1.6.6 1.3 1.2 2 1.8 1.4 1.3 2.8 2.5 4.2 3.7.9.8 2 1.2 3.2 1.5 2.7.7 5.4.9 8.1 1.3.7.1 1.4.3 1.9.8l.1.1c-1.5-.2-3.1-.2-4.6-.2-1.7 0-3.3.2-5 .3-.6.1-1.2 0-1.7-.1-1.6-.4-3.1-1-4.6-1.6-1.7-.7-3.1-1.8-4.5-3l-.3-.3c-.5-.5-.8-.9-1-1.4-.5-1.1-.4-2.3-.1-3.7.2-.5.3-.8.4-1.2zm13.5 21.7h-.3c-.2 0-.4 0-.6.1-.2 0-.4.1-.4.3l-.3.6v.1c-.4 1-1 1.8-1.6 2.5-.1.2-.3.3-.5.5-.4.4-.8.7-1.3 1.1-.7.5-1.6.8-2.4 1.2-.1 0-.1 0-.2.1-.1 0-.1 0-.2.1h-.3c-.2.1-.3.2-.2.5.1.3.3.4.6.4h.2c.3 0 .5-.1.8-.2.2-.1.5-.2.8-.3.2-.1.3-.1.5-.2-.1.6-.2 1.2-.4 1.8 0 .1-.1.2-.1.3-.1.3-.3.7-.5 1l-.3.6c-.6 1.2-1.3 2.3-2.1 3.4-.2.2-.3.4-.5.6-.4.4-.8.8-1.3 1.1-.2.1-.3.2-.5.4-.4.2-.7.4-1.1.6-.3.2-.6.3-.9.4-.1 0-.2.1-.3.1-.1 0-.2.1-.3.1-.1 0-.1.1-.2.1-.2.1-.4.2-.6.2-.1 0-.1 0-.2.1-.2.1-.4.1-.7.2-.7.2-1.4.4-2.1.5-.3.1-.6.1-.8.2h-.1c-.3 0-.6.1-.8.1-.3 0-.6.1-.9.1-1 .1-2 .1-3-.1h-.2c-.3-.1-.5-.2-.7-.3-.3-.2-.6-.4-.9-.5-.2-.1-.4-.2-.7-.4-.3-.2-.6-.3-.8-.5-.5-.4-1-.8-1.2-1.4-.1-.3-.3-.7-.5-1 0-.1-.1-.2-.2-.3-.4-.7-.9-1.3-1.4-1.9-.2-.2-.4-.5-.6-.7-.1-.1-.2-.2-.3-.4-.4-.5-.9-1-1.3-1.4l-.3-.3c-.5-.5-1-.9-1.5-1.3-.1-.1-.3-.2-.4-.3-.4-.3-.8-.6-1.3-.8-.1-.1-.2-.1-.3-.2-.1-.1-.2-.1-.3-.2-1.4-.9-2.6-2.2-3.2-3.8 0 0 0-.1-.1-.1-.2-.5-.6-.6-1.1-.6-.5 0-.9-.1-1.3-.2-.2-.1-.5-.2-.7-.4L56 90c-.1-.1-.2-.3-.3-.5-.7-1.1-1.4-2.2-2-3.4V86c-.1-.3-.2-.7-.4-1-.1-.2-.1-.3-.2-.4-.1-.2-.1-.4-.1-.5v-.6s0-.1.1-.1c.1-.3.4-.5.7-.7l.3-.3c.2-.2.5-.3.7-.5.4-.2.7-.4 1.1-.6 1.4-.7 2.9-1.2 4.4-1.6.1 0 .2 0 .3-.1.2 0 .4 0 .5-.1h1.3c.6 0 1.2-.1 1.9-.1.9-.1 1.9-.1 2.8-.2.9-.1 1.9-.2 2.8-.3 1.7-.2 3.3-.6 4.9-1.2.3-.1.6-.3 1-.4l.6-.3c.1-.1.2-.1.3-.2.7-.4 1.5-.8 2.2-1.2.1-.1.2-.1.3-.2v.1c0 .1 0 .1-.1.2 0 0-.1 0-.1.1-.7.9-1.7 1.6-2.6 2.3-.1.1-.2.1-.3.2-.3.2-.5.5-.9.7 1.1 0 2.1-.1 3.1-.4 1.4-.4 2.7-1.1 3.8-2.3.2-.3.5-.5.7-.8.5-.7 1-1.5 1.4-2.5.3 1.2 1.2 2 1.9 3 0 .1.1.1.1.2s.1.1.1.2l.3.3c.1.1.2.1.2.2.1.1.2.1.2.2l.1.1c.5.4 1.1.8 1.6 1.3.4.3.7.5 1.1.8.6.4 1.1.8 1.7 1.2.8.5 1.6 1 2.4 1.4l.6.3c.6.3 1.3.5 2 .7h.1c.4.1.9.1 1.3.2h.5c.1 0 .2.1.3.1l.3.3c.4.3.7.8.8 1.1v.1c0 .1-.1.2-.2.2-.1.3-.3.5-.4.8 0 0 0 .1-.1.1-.2.4-.2.8 0 1.4.6-.6 1.1-1.2 1.5-1.9l.3-.6c.1-.1.1-.3.2-.4v-.4c0-.1-.1-.4 0-.5h.5c.2 0 .5 0 .7.1.1 0 .1.2.1.4 0 .4-.2.9-.4 1.3 0 .1-.1.2-.1.3-.3.7-.6 1.4-1 1.9-.6.4-1.3 1.1-2.4 1.1zm1.3 2.4c-.2.9-.3 1.7-.4 2.6 0 .2-.1.5-.2.9v-.2s0 .1-.1.1c-.2-1.3-.3-2.5-.4-3.6 0-.3.2-.3.3-.4.3-.1.6-.4.8-.3l.1.1c.2.1 0 .5-.1.8zm-18.3 18.4c-.5.1-.9.1-1.4.1-.5 0-1 0-1.4-.2-.3-.1-.4-.2-.3-.4 0-.1.1-.1.2-.1h1.5c.4 0 .8 0 1.2-.1h.2c.2 0 .3 0 .3.3 0 .1 0 .3-.3.4zM58.3 98.2c.2-1 .1-2.1.3-3.1 0-.2.1-.2.3-.1l.6.6.1.1c.1.1.1.2.1.3-.4.8-.8 1.6-1.2 2.3-.1-.1-.1-.1-.2-.1zm40-17.2c-.4 0-.9-.1-1.3-.1-.9 0-1.6-.4-2.3-.8h.1c-.1 0-.1-.1-.2-.1h.4c.1 0 .3 0 .4.1 1.2.3 2.4-.1 3.6-.2 1.3-.1 2.3.3 3.4.9h-.1s.1.1.2.1c-1.4.1-2.8.2-4.2.1zM51.8 65.1c.4-.8.9-1.5 1.4-2.2.2-.4.5-.7.8-1.1.1-.2.3-.3.4-.5l1.2-1.5c.4-.5.8-1 1.3-1.5.4-.5.9-1 1.3-1.5.2-.2.4-.3.6-.5l.1-.2c.4-.4.8-.7 1.2-1.1h.1l.3-.3c1.2-1.2 2.7-2.1 4.1-3 .1-.1.3-.2.4-.3.2-.1.4-.2.6-.2 0 0 .1 0 .1-.1l.9-.3c.2-.1.4-.1.6-.2l2.1-.6c1.3-.4 2.7-.6 4-.6h.6c1 0 2 .4 2.9.9l1.2.6c.1 0 .2.1.3.1.3.1.6.3.9.5l.6.3c.2.1.4.2.6.4.4.3.7.5 1.1.9 1.1 1 1.9 2.3 2.4 3.7.3 1 .6 2.1.7 3.2.1 1-.2 2.1-.5 3.1 0 .1-.1.2-.1.2-.1 0-.1-.1-.2-.2-.4-.4-.7-.9-1.1-1.3-1.5-1.7-3.2-2.9-5.4-3.5-1.7-.5-3.4-.7-5.1-.8-1.4 0-2.8.2-4.2.5l-3.3.6c-.7.1-1.4.4-2 .7-.3.1-.6.3-.9.4h-.1c-1.9.7-3.6 1.9-5.3 2.9-.5.3-.9.7-1.3 1.1l-.3.3c-.8.8-1.6 1.5-2.4 2.2-.4.5-.9.9-1.4 1.4.2-.9.4-1.7.8-2.5zm-.3 5c.1-.1.1-.2.2-.3 1.7-1.7 3.4-3.5 5.3-5 3.2-2.5 6.6-4.4 10.6-5.3 1-.2 1.9-.4 3-.4s2.3 0 3.4-.1c2.2-.1 4.2.5 6 1.7.7.4 1.3.9 1.9 1.5l.1.1c.6.6 1.2 1.3 1.7 2.1.4.7.3 1.4.2 2.1-.4 2.1-1.6 3.6-3.1 5.1-1.5 1.5-3.2 2.4-4.8 3.4-2.2 1.5-4.8 2.1-7.4 2.5-3.3.5-6.6.5-9.8 1-1.2.1-2.4.2-3.6.5-1.4.3-2.6 1-3.5 2.1-.3.4-.5 1-.8 1.6v-.2c-.2-.7-.1-1.3.2-1.8.6-1.3 1.5-2.2 2.8-2.8 2.1-1.1 4.5-1.4 6.8-1.9 1.9-.5 3.8-.7 5.6-1.3 2.5-.7 5-1.6 7.4-2.8 1.2-.6 2.5-1.3 3.4-2.5.6-.9.8-1.8.6-2.9 0-.2-.1-.3-.1-.3-.1 0-.1 0-.3.1-.9.8-1.9 1.6-3 2.3-1.6 1.1-3.5 1.7-5.4 2.2-3 .7-6 1.4-9.1 1.6-2.2.1-4.3.5-6.4 1.3-1.8.6-3.5 1.2-5 2.5-.2.2-.4.3-.7.5v-.2l-.1.1.1-.1c.1-.4.2-.7.4-1 1.1-1.9 2.3-3.6 3.4-5.4zm12.3 3.3l2.7-.4.5-.1c-.6.3-1.2.4-1.8.6-2.9.7-5.8 1.1-8.8 1.7-2.1.4-4 1.2-5.7 2.5-.1.1-.2.2-.3.2-.1.1-.2.1-.2 0v-.1c0-.7.2-1.1.9-1.4.9-.4 1.9-.9 2.8-1.3 1.2-.6 2.5-.7 3.8-.9 2-.4 4.1-.6 6.1-.8zm-.1-.1zM53.2 24.9c0 .1.1.2-.1.3-.4.3-.9.5-1.3.8 0 0-.1 0-.2.1 0-.1-.1-.2-.2-.3-.9-1.1-1.9-2.1-2.8-3.2-.1-.1-.2-.3 0-.4.9-.5 1.6-1.4 2.6-1.8.2-.1.3-.1.5.1.5 1.5.9 2.9 1.5 4.4zm-7.6-6.6l3.9-1.5c1.9-.7 3.6-1.8 5.4-2.8.2-.1.4-.2.5-.3.2-.1.3-.3.5-.2.2.1.2.4.2.7.1.3-.1.6-.4.8-1.8 1.7-3.6 3.2-5.6 4.8-.8.6-1.7.9-2.5 1.4-.2.1-.3 0-.4-.1l-1.8-2.4c-.3-.3 0-.3.2-.4zm-11.3 17c-1.4-4.4-2.9-8.7-4.1-13.2-.3-1-.4-2.1-.6-3.2-.1-.3.1-.5.3-.6.3-.1.3.2.4.3 1.9 2.7 3.3 5.7 4.9 8.6.5.9 1 1.7 1.5 2.6.1.2.2.3.4.2.3-.1.2-.3.2-.5-.2-.9-.7-1.7-1-2.5-.1-.3-.1-.5 0-.8.7-1.5 1.7-2.7 2.5-4.1.7-1.3 1.6-2.4 2.3-3.7.4-.7 1.2-.8 1.7-.2.4.3.7.7.9 1.2.9 1.5 2.1 2.6 3.3 3.8.8.8 1.7 1.7 2.6 2.4.3.3.3.7.5 1 .1.1 0 .2-.1.3-.1 0-.1.1-.2.1-.7.6-1.4.5-2.3.1-1.7-.9-3.2-2-4.5-3.3l-.1-.1c-.6-.4-.6-.4-.9.3-.3.7-.4 1.4-.8 2.1-.1.2.1.5.2.7.2.2.3.5.7.5.2 0 .2-.1.3-.3.1-.4.2-.8.3-1.3 1.4 1.1 2.9 2 4.3 3-.5.3-1 .6-1.4.8-3.7 2.1-7.4 4.1-11.1 6.2.1-.1 0 0-.2-.4zm1.3 2.9c-.1-.3-.1-.4.2-.6 4.5-2.8 8.9-5.5 13.3-8.3.2-.1.5-.1.7-.1.8-.2 1.5-.4 2.2-.8 0 0 .1-.1.2-.1.5-1.1 1.6-1.5 2.5-1.9 2.1-1 4.3-1.9 6.1-3.3.4-.3.9-.2 1.2 0 .3.2.5.6.4 1.1-.1.6-.4 1.1-.8 1.5-1.8 1.7-3.2 3.6-4.6 5.6-1.2 1.9-2.3 3.7-3.2 5.7-.2.4-.5.7-.8 1.1-1.2 1.4-2.7 2.5-4.4 3.3-.4.2-.5.4-.6.8 0 .3-.1.6-.1.9 0 .8-.3 1.5-1 2-.2.2-.2.4-.3.6-.5 1.6-.9 3.2-1.4 4.7v.1c0 .1 0 .2-.1.2-.2 0-.4 0-.6-.1-2.3-.5-4.6-1.1-6.9-1.7-.3-.1-.6-.1-.9-.2-.5-.1-.5-.3-.3-.6.3-1.5.6-2.9 1.5-4.1.2-.3.2-.5 0-.8-.7-1.6-1.5-3.3-2.3-5zm-4.8 18.9h-.2c-.2-.1-.3-.2-.3-.5.3-2.5.5-4.9.8-7.4v-.3c0-.1.1-.1.2-.1h.2c3.3.9 6.7 1.8 10 2.6 3.3.9 6.7 1.7 10 2.6.3.1.4.2.3.5l-1.4 4.7c0 .2-.1.4-.3.4H50c-1.8-.2-3.6-.5-5.4-.7-1.2-.2-2.3-.3-3.5-.5-3.3-.4-6.8-.8-10.3-1.3zm2.8 4.8c-.1-.2 0-.3 0-.4 0-.1 0-.1.1-.2v.1s-.1.2-.1.5zm30.6 46.3c-.1 0-.1.1-.2.1 0 0-.1 0-.1.1-.1 0-.1.1-.2.1-.2.1-.3.2-.4.4v.2c-.1.4-.2.6-.2.8v.3s-.1 0-.1.1c-.1 0-.1 0-.3-.1-.2-.1-.4-.1-.7-.2h-.2s-.1 0-.1-.1c-.4-.1-.7-.2-1.1-.3-.2-.1-.4-.1-.6-.2-.3-.1-.5-.2-.8-.2-.7-.2-1.5-.4-2.1-.6h-.2c-.5-.1-.9-.2-1.4-.3-.5-.1-.6-.3-.6-.8v-.8c-.1-.1-.2-.3-.3-.4 0 0 0-.1-.1-.1-.1-.1-.2-.1-.2-.2-.1 0-.1 0-.1-.1-.4-.4-.3-.8-.2-1.3v-.5c.2-.8.2-1.5-.6-2-.1-.1-.2-.1-.3-.2l-1.2-.9-.2-.2c-.6-.3-1.1-.7-1.6-1.2-.1-.1-.3-.1-.4-.2-.1-.1-.2-.1-.2-.2-.1-.1-.2-.1-.3-.2-.6-.5-1.5-1-2.1-1.6-.2-.1-.4-.3-.6-.4-.7-.5-1.3-.9-1.9-1.4-.1 0-.1-.1-.2-.1-.4-.2-.7-.5-1.1-.7-.1-.1-.2-.1-.3-.1-.3-.2-.6-.4-.8-.6-.1-.1-.2-.1-.3-.2-.7-.5-1.4-.9-2-1.5l-.1-.1-.1-.1c0-.1-.1-.1-.1-.2s0-.1-.1-.2v.1c-.4-.5-.7-1-1.1-1.6V90c0-.1.1-.2.1-.3v-.1c.1-.8.6-1.5.9-2.3v-.6h-.1c-.1 0-.2 0-.3.1-.1.1-.2.1-.3.2 0 0-.1 0-.1.1 0 0 0 .1-.1.1-.2.3-.6.5-.9.8-.1.1-.2.1-.2.2-.1.1-.2.1-.4.1-.5-.2-1.1-.5-1.6-.7-.1-.1-.2-.2-.2-.3V87c-.2-.9.1-1.5.3-2.3v-.2c.1-.7.2-1.5.4-2.2V82c-.1-.8-.1-1.6-.2-2.4v-.4c-.1-1.5-.2-3-.2-4.4-.1-3.1-.4-6.2-.3-9.3 0-.5-.1-.9-.2-1.3 0-.1-.1-.2-.1-.3-.1-.3-.3-.6-.5-.8-.3-.4-.4-.8-.2-1.2.2-.7.3-1.5.5-2.2.1-.3.2-.5.6-.4h.5c.7.1 1.3.2 2 .3h.2c.6 0 1.3.1 1.9.2h.2c.7.1 1.5.2 2.2.3.2 0 .3 0 .5.1h.1c.9.1 1.6.2 2.3.3h-.1c.5.1.8.1 1.2.2.4.1.8.2 1.2.2h.2c.2 0 .3.1.4.4.2 1.2.4 2.4.6 3.5v.2c0 .2.1.4.1.6.1.6.2 1.1.3 1.7v.2c.1.7.3 1.4.4 2.1v.2c-.2.2-.5.5-.7.8-.3.5-.6 1-.9 1.6-.2.4-.4.8-.5 1.2-.1.4-.3.8-.5 1.2 0 0 0 .1-.1.2-.2.6-.4 1.1-.7 1.6-.1.2-.2.3-.3.5 0 .1-.1.2-.1.3-.1.5-.2.9-.5 1.4-.1.4-.2.8-.4 1.2-.1.7-.4 1.4-.7 2 0 .1-.1.2-.1.3v.3c-.1 1.3-.1 2.6-.2 3.8h.1c.2-.3.3-.6.5-1 .2-.3.3-.6.5-1 .1-.2.3-.4.3-.7.4-.6.7-1.2 1.1-1.8 0-.1.1-.1.1-.2.3-.5.7-1.2 1.1-1.7.1-.2.3-.4.4-.6.1-.2.2-.3.3-.4.1-.1.2-.2.4-.3v.8c-.1.7-.1 1.6-.1 2.4v.1c.1.7.2 1.5.3 2.2v.2c.1.7.3 1.5.4 2.3v.2c.1.6.6 1 .8 1.5l.6.9c.6.5 1.1 1.1 1.8 1.6.1 0 .2.1.3.1v.1c.2 0 .5.2.7.1 0 0 .1 0 .1-.1 0 0 .1 0 .1-.1.1-.1 0-.2-.1-.2-1-.6-.9-1.7-1-2.7.2.2.4.5.6.7l.1.1.3.3c.2.2.4.4.6.5.2.2.4.3.6.5.1 0 .2.1.3.1.7.4 1.4.7 2.1 1.1.1 0 .3.1.4.2.2.7.5 1.5.5 2.4 0 0 0 .1.1.1v.2c.1.7.1 1.5 0 2.2v.3c0 .7 0 1.4-.2 2.1 0 .7-.2 1.4-.3 2.1v.1c0 .1-.1.3.2.3.7-.7 1.3-1.4 2-2.2 0-.2.2-.4.3-.5.3-.2.5-.7.8-1 .3-.4.5-.7.8-1.1v-.1c0-.1.1-.2.1-.2h.1c.1 0 .2 0 .3.1.1.1.3.2.4.2.7.4 1.6.7 2.1 1.4l.2.2c.3.1.5.4.7.7l.2.2c1 .8 1.1 1.3.3 2.4l-.1.1c0 .1-.1.2-.1.3 0 .1-.1.1-.1.2v.1c-.2.3-.4.6-.5 1-.1.3-.1.6-.1.9.1.5.3 1 .4 1.5.1.3.1.6.1.9-.5 1.1-.9 1.5-1.5 1.9zm3.3 6c-.2.2-.2.6-.4.6H67c-.5-.1-1-.2-1.4-.4-.1-.1-.1-.3-.1-.5v-2.3c0-.2.1-.3-.1-.5-.5-.3-.4-.9-.5-1.4 0-.2.1-.3.2-.4.5-.5 1-1.1 1.4-1.6.3-.3.5-.7.2-1.2-.4-.8-.4-1.6 0-2.5.3-.7.5-1.4.7-2.2 0 0 0 .1.1.1.5.6 1 1.1 1.3 1.7.8 1.5 1.9 2.6 3.4 3.4.7.4 1.3.9 2.1 1h.1c.1 0 .2 0 .2.1s-.1.1-.2.1h-.1c-.9 0-1.7.2-2.5.3-.4.1-.9.2-1.3.3l-1.2.3h-.1c-.2 0-.2.1-.2.3 0 .2.1.3.3.4.4.1.9.1 1.4.1h.1c.6 0 1.2-.1 1.8-.2.7-.1 1.4-.2 2-.2.7 0 1.3 0 2 .1-2.2.4-4.1 1.6-6.1 2.5-1 .4-1.8 1.3-2.8 1.8-.1.1-.1.2-.2.3zm6.4 1.6c0 .1 0 .1 0 0 0 .1-.1.1 0 0h-.2c-1.5-.4-2.9-.7-4.5-1.1.5-.4.9-.6 1.5-.4 1 .4 2 1 2.9 1.4.2 0 .3 0 .3.1zm4.4 4.8c-.2.4-.6.7-1 1-.7.5-1.5 1-2.5 1.3.4-1.1.7-2.1 1.3-3 .4-.6 1.4-.7 1.9-.4.5.1.6.6.3 1.1zm5.8-6.6c-1.1.9-2.3 1.8-3.3 2.9-.3.2-.5.3-.8.1-1.8-1.1-3.7-2-5.7-2.8-.9-.4-1.8-.5-2.6-.8.1-.2.3-.2.4-.2 1.9-.7 3.8-1.3 5.7-2.2.5-.2 1 0 1.4 0 .7.1 1.4.1 2-.2.1-.1.2-.1.4 0 1.4.6 2.9 1.2 4.4 1.8-.7.4-1.3.9-1.9 1.4zm8.9-6.3c-.6.8-.7 1.6-.4 2.5.3 1.1.1 1.8-.9 2.3-.2.1-.4.2-.6.2-.1 0-.3 0-.5-.1-1.9-1.3-4.2-1.8-6.4-2.6l-.9-.3c-.4-.1-.3-.3-.3-.6 0-.2.1-.2.2-.2s.2 0 .3.1c2.5.6 5 1.1 7.4 2 .1 0 .2 0 .2.1.2 0 .2-.2.2-.4 0-.6-.1-1.1-.7-1.4-1.6-.7-3.3-1.1-5-1.2h-.8c1.2-.7 2.6-1.1 3.7-2.1.1-.1.3-.2.4-.3l2.1-2.5c.1-.1.2-.3.2-.4h.1c.2.1.2.3.3.4.5 1.3 1 2.6 1.6 3.8-.1.2 0 .5-.2.7zM119.5 55l.1.1v.1l-.1.1v.1c-.7.8-.5 1.5 0 2.1 0 .1.1.1.1.2.5.7.1 1.3 0 2 0 .1 0 .1-.1.1h-.1c-.4-.1-.9-.3-1.3-.4h-.2c-.2 0-.4 0-.6-.1-.6-.2-1.1-.2-1.5.3v.1c.2.3.6.4.9.5 1.3.4 2.3 1.2 3.5 1.8.3.1.3.5.3.8 0 .2-.1.3-.1.5-.1.5-.2 1.1-.4 1.6 0 .1 0 .3-.1.4 0 .9-.6 1.5-.9 2.3 0 .1-.1.1-.1.2-.2.5-.4 1-.7 1.5 0 0 0 .1-.1.1-.1.2-.1.5-.3.7-.2.8-.6 1.5-1 2.2 0 .1-.1.1-.1.2-.3.7-.7 1.6-1 2.5-.1.3-.1.6-.2.9v.2c0 .4 0 .7-.2 1-.1.2-.1.4-.2.6v.1c-.3 1.6-.7 3.2-1 4.7-.3 1.3-.4 2.6-.6 3.9-.2 1.2-.2 2.5-.5 3.7-.2.9-.7 1.7-1.1 2.5-.4.8-.6 1.6-1.1 2.3v.1s0 .1-.1.2v1.3c-.1 1.3-.3 2.7-.2 4 0 .2-.1.4-.3.5-.1 0-.2.1-.3.1-.2.1-.4.2-.6.2-.1 0-.2.1-.3.1-.2.1-.3.1-.5.2h-.1c-.2.1-.5.2-.7.3-.2.1-.3.1-.5.2-.3.2-.7.4-1.1.5-.1 0-.1.1-.2.1-.8.3-1.6.7-2.3 1.1h-.1c-.4.1-.9.4-1.3.6-.5.2-.9.4-1.4.6-.7.3-1.4.6-2.2.9h-.1c-.7.2-1.3.6-2 .9-.2.1-.6.3-.9.4-.6.2-.7.2-.8-.4-.4-.3-.4-.7-.5-1.1-.1-.4-.2-.8-.4-1.2 0-.1-.1-.1-.1-.2-.1-.2-.1-.3-.2-.5v-.3c-.2-.5-.4-1-.5-1.6-.1-.3-.3-.7-.4-1v-.7c.1-.2.3-.5.4-.7.1-.2.2-.4.2-.6.1-.2.2-.3.2-.6.2-.4.3-.8.6-1.2 0-.1.1-.2.1-.3.2-.8.5-1.5.8-2.3v-.1c.1-.4.5-.6.8-.9.1 0 .2-.1.2-.1.1-.1.1-.2.2-.2.1-.2.3-.3.4-.5.1-.1.1-.2.2-.3.2-.3.4-.7.7-1.1.1-.1.2-.3.3-.3h.1c.2 0 .1.3.1.4-.1.6-.1 1.1 0 1.7.1.4.1.9.2 1.3v.2c.1.3.2.6.2 1 .1.4.2.8.3 1.3.4.8.6 1.6.9 2.3.4.6.8 1.3 1.3 2 .1.2.3.3.4.5v.1c.1 0 .2.3.4 0 0-.1-.1-.1-.1-.1-.1-.1-.1-.3-.2-.4 0-.1-.1-.2-.1-.3 0-.1 0-.2-.1-.3v-.3c0-.1 0-.2-.1-.4 0-.1 0-.3-.1-.4v-.2c0-.1 0-.3-.1-.4 0-.3-.1-.6-.1-.9 0-.1-.1-.3-.1-.4-.2-1.6-.1-3.2.2-4.9h.1c.1-.7.3-1.6.4-2.4h.1c0 1.4.1 2.7.4 4v.1c.2.5.4 1 .5 1.5 0 .1.1.2.1.3 0 .1.1.2.1.3 0 .1.1.1.1.2s.1.1.1.2l.3.3c.1.1.1.2.2.3.3.2.5.5.9.8 0-.3-.1-.5-.1-.7 0-.2-.1-.4-.1-.7 0 0-.1 0-.1-.1v-.6c-.1-.6-.1-1.1-.2-1.7v-.2c-.1-.7-.1-1.4-.1-2.1V92c-.1-.6 0-1.2 0-1.7v-.6c0-.8 0-1.6.3-2.4v-.1c.1-.4.1-.8.2-1.2.1-.4.1-.8.2-1.2 0-.2.1-.3.2-.3 0 0 .1 0 .2.1.1 0 .2.1.3.2.1.1.3.2.4.2.1.1.2.2.4.3l.1.1c.9.4 1.4 1.2 1.9 1.8.1.1.2.1.3.2.1.1.2.3.3.5.4.5.7 1.1.9 1.7v.3c.1.1.2.3.2.4.1.1.1.3.2.4 0 .1.1.1.1.2 0 0 0 .1.1.1 0 .1.1.1.2.1.1-.5-.2-.9-.1-1.3v-.2c-.1-.8-.2-1.6-.6-2.3v-.2c-.3-.7-.4-1.5-.9-2.2-.1-.1-.2-.2-.2-.3-.1-.1-.2-.3-.3-.4-.1-.1-.1-.2-.2-.3v.1c-.3-.5-.7-1-1.1-1.4 0 0-.1 0-.1-.2-.3-.1-.6-.5-.9-.8 0 0-.1 0-.1-.1l-.1-.1c-.6-.4-1.1-.9-1.6-1.3-.1-.1-.2 0-.3-.2 1.6-.1 3.2.1 4.8.2V80c.8.1 1.5.3 2.3.6h.1c.5.1 1 .3 1.4.6.1 0 .2.2.3.1.1-.1 0-.2-.1-.3-.2-.3-.4-.5-.6-.8 0-.1-.1-.1-.1-.2-.4-.4-.7-.8-1-1.1l-.3-.3c-.4-.2-.8-.5-1.1-.9-.1 0-.1-.1-.2-.1-.2 0-.3-.2-.5-.3-.2-.1-.3-.2-.5-.3-.1 0-.1-.1-.2-.1-.8-.3-1.5-.5-2.3-.8h-.2c-.2 0-.3-.1-.4-.1-.1 0-.1-.1-.1-.2v-.4c0-.4 0-.8-.1-1.1 0-.1 0-.2-.1-.3 0-.1 0-.2-.1-.3 0-.1 0-.2-.1-.3 0-.1-.1-.3-.1-.5-.1-.8-.4-1.5-.6-2.3 0-.1 0-.2-.1-.3-.2-.4-.3-.6-.3-.9V69c0-.1 0-.3.1-.4 0-.2.1-.4.2-.6v-.1c.2-.9.5-1.6.8-2.4.2-.3.3-.6.3-1 0-.2-.1-.4-.1-.5-.1-.2-.2-.4-.3-.7l-.1-.1c-.5-.5-.8-1.2-1.1-1.8 0-.1-.1-.1-.1-.2V61c0-.1 0-.1.1-.2 0 0 0-.1.1-.1l.1-.1c.3-.5.6-1 1-1.5.3-.4.4-.8.3-1.3-.2-.7-.2-.7.5-1 .1 0 1.6-.6 2.2-.8.1 0 .3-.1.4-.1h.1c.1 0 .2-.1.3-.1.8-.3 1.6-.6 2.3-.9h.1c.7-.4 1.5-.6 2.3-.9.1 0 .2-.1.3-.1.1-.1.5-.2.6-.3.6-.2 1.1-.5 1.7-.6.8-.6 1.5-.4 2 .4.1 0 .1.1.2.2s.1.2.3.3c.4-.1 1 .5 1.5 1.1zm-17.4.7h-.2c-.2 0-.3-.1-.4-.3-1.1-2-2.3-4.1-3.4-6.1-.1-.3-.2-.4.2-.5 7.3-2.1 14.6-4.3 22-6.4.1 0 .2 0 .3-.1-.1 1.3-.2 2.6-.3 3.8-.1.9-.1 1.8-.2 2.8 0 .3-.1.5-.5.7-5.9 2-11.7 4-17.5 6.1zM66 83.5c2.1.2 4.1.6 6.1.9.3 0 .5 0 .8.2.6.3.9.9 1.2 1.5.4.9.5 1.9.5 2.9 0 .8-.1 1.4-.7 2-.5.4-.9.8-1 1.4.8 0 1.5.1 2 .8.3.4.7.8 1.2 1.1 1 .9 2.4.7 3-.4l.9-1.5c.4-.7.9-1.4 1.7-1.6.5-.2.3-.4.1-.6-.3-.4-.9-.4-1.5-.1-.8.5-1.4 1.2-2 1.9-.2.2-.3.4-.6.6-.3.2-.6.2-.8 0l-.9-.9c-.3-.2-.3-.4-.2-.7.3-.7.5-1.4.4-2.1-.1-1.6-.4-3.2-1.6-4.5-.1-.1-.1-.2 0-.3 1.3-.9 1.9-2.1 2.1-3.6 0-.4 0-.7-.3-.8-.3-.1-.5.2-.6.5-.3.5-.7 1-1.1 1.5-.6.8-1.3.9-2.2.8-3-.5-5.9-.8-8.9-.9h-.4c-.9.7-1.9 1.4-2.5 2.4h.4c1.7-.5 3.3-.6 4.9-.5zm27.6 1.2c-.7.4-1.5.7-2.1 1.2-.2.1-.4.2-.6.2-1.2.2-2.5.4-3.7.4-.7 0-1.3-.3-1.9-.7-.3-.2-.7-.5-.8-1 .2-.1.4 0 .5 0 .7.1 1.3.3 2 .3 1.6-.1 3.1-.6 4.6-1.1.5-.2 1-.4 1.5-.5.2-.1.3-.1.1-.4-.2-.3-.5-.2-.8-.2-3.2.5-6.4.3-9.7-.2-.9-.2-1.9-.2-2.3-1.4l-.3-.9c-.1-.4-.3-.6-.5-.9-.1-.2-.3-.2-.5-.2s-.2.3-.2.4c0 .5 0 1 .1 1.6.1.6.2 1.1.6 1.6.6.9 1.5 1.5 2.6 1.7.8.2.8.2.9 1 0 .4.1.7.4.9.6.3 1.2.7 1.9.8.4 0 .9.1 1.3.3.5.4 1.1.5 1.6.5.4 0 .9 0 1.3.1.3.1.6 0 .8-.3 1.2-1 2.4-2 3.6-3.2 0-.1-.2-.2-.4 0zm-10.2 10c-.1-.2-.2-.2-.4-.1-1 .5-2.1.6-3.2.7-.5.1-1-.1-1.4.3-.8.8-1.5.5-2.2-.1l-.1-.1c-1.1-.6-2.1-.8-3.2 0-.4.3-.9.5-1.4.3-.4-.1-.7-.1-1 .2-.1.1-.3.2-.5.4-.5.3-.5.4 0 .7.1.1.2.1.3.2 1 .3 2 .1 2.9-.4.9-.5 1.8-.5 2.7.2.8.6 1.6.6 2.5.2 1.1-.5 2.2-.9 3.4-1.1.2 0 .3-.1.5 0 .5.5 1 .1 1.4 0 .2-.1.2-.2.2-.4-.1-.5-.4-.7-.5-1zm-4.5 3.2c-1.2 0-2.5.2-3.6.6-1 .3-2 .5-2.5 1.6-.3.6-.2 1.3-.4 2 .1.5.1 1 .4 1.5.1.1.1.3.3.3.2 0 .3-.2.4-.3.2-.5.3-1 .4-1.5.2-.8.6-1.5 1.5-1.8.9-.4 1.8-.7 2.7-1.1.2-.1.3-.1.5-.1 1.1.2 2.3.1 3.2.8.1.1.2.1.3.1.4-.1.4-.2.2-.5-1-1.1-2.1-1.6-3.4-1.6zm-8.7-11.2c.7-.1 1.5-.2 2.2-.3.2 0 .5 0 .6-.2 0-.2-.2-.4-.4-.6-.1-.1-.2-.1-.4-.1-.7-.3-1.5-.2-2.3-.1-1.5.3-3.1.4-4.6 0-.4-.1-.8-.1-1.3-.2-.6.1-1.2.3-1.8.5-.4.2-.4.4-.1.7.2.2.4.3.7.2 1-.3 1.8-.2 2.6.5s1.7.8 2.7.4c.5-.2 1-.5 1.5-.8.2.1.4 0 .6 0zM57 88.1c0-.7-.1-1.3-.7-1.6-.4-.3-.6-.6-.7-1-.2-.5-.2-1.2-.7-1.6-.1-.1-.2-.4-.4-.3-.3.1-.5.2-.6.6-.2 1.2.3 2.3 1.4 2.9.5.3.9.7 1.2 1.2.1.2.1.5.4.5.2-.3 0-.6.1-.7z" fill="#fff"/><path class="st0" d="M36.4 65.5c.1 0 .1 0 0 0zM46.9 64zm56.9 40.1h-.2.2zM121 62.9l-.5-1.8.4-2.1-.6-2.4.4-1.7-3.2-3.9-14.5 5 .6 1.9-1.3 2.2 1.3 3.9-2 3.9 2.8 8.3 5.9 3.1c-.3.1-7.5-.6-7.5-.6l1.7 3.5-2 5.5-2.3 1.2-2 .6-3.9 4.5-2.9 7.1 2.4 7h.4l2.4-1c-.1-.1-.1-.1-.1-.2-.2-.5-.2-1.5 0-1.7.2-.3.9-.1 1.2-.1.4 0 .8-.1.9.4v.6c0 .1 0 .2.1.3l.2-.1v-.3c0-.2 0-.5.1-.6.3-.5 1.3-.3 1.7-.2h.1c.2 0 .2.2.3.3l2-.8c-.2 0-.4 0-.6.1-.1 0-.2.1-.3.1h-.5c-.1 0-.2-.1-.2-.3-.1-.5-.1-1.5.2-1.9.1 0 .2.2.4 0 .4 0 1.3-.1 1.5.3.1.2 0 .7 0 1 0 .2.1.3.2.4 0 0-.1 0-.1.1l.2-.1v-.5c0-.4 0-.9.2-1.1.3-.3 1.3-.1 1.6-.1.2 0 .3.1.4.2v.1c-.1.1-.2.3-.2.5-.6.3-1.2.6-1.9.8l6.8-2.8.3-5.8 2.9-5.9.6-6.5 3.2-9.9 3.6-8.2-.4-2.3zM94.6 97.1c.2-.7.4-1.4.7-2.1h.6s.1 0 .1.1c.2.1.2.4.2.9 0 .3.1.8-.2 1-.4.3-1.1.1-1.4.1zm-.6 7.4c0-.1-.1-.3-.1-.4v-1c0-.3 0-.6.2-.7.2-.1 1.7-.1 1.8.1.1.1.2.6.2 1s-.1.9-.2 1c-.3.3-.8.2-1.3.2h-.2l-.4-.2c.1-.1.1 0 0 0zm2.1-3.5c0 .5.1 1-.4 1.1-.3.1-1.4.2-1.6-.1-.2-.2-.2-1.4-.1-1.7.1-.5.8-.6 1.3-.3.3.1.5-.1.8.1.2.2 0 .6 0 .9zm0 5.5c0 .1 0 .1 0 0-.2.6-.7.3-1 .4-.1 0-.3-.1-.4-.1-.3-.5-.5-1.5-.6-2h.3c.1 0 .1 0 .2-.1h1c.4 0 .6.5.5 1 .1.4.1.7 0 .8zm-.5-6.9c-.2 0-1.1.1-1.4 0-.3-.2-.3-.5-.4-.9.2-.4.4-.9.6-1.3.5 0 1-.1 1.6.1h-.1.2c0 .1.1.1.1.2-.2.7.3 1.7-.6 1.9zm.7-5.8c.2-.2.9-1.4 1.4-2 .2-.2.3-.3.4-.3.3.1 0 1.3 0 1.5 0 .7.2 1.3.3 2-.1-.1-.3-.2-.5-.2H97c-.6 0-.5-.5-.7-1zm1.3 10.8c-1 0-1.2-.1-1.2-1.1 0-.9.1-1 1.1-1.1h.8c0 .1.1.1.2.2.1.2.1.4.1.8 0 1-.1 1.2-1 1.2zm1-3.4c0 .2 0 .4-.1.5-.2 0-.3.2-.3.3h-.8c-1 0-1-.2-1-1.2 0-.9.2-.9 1.1-.9h.1c.3 0 .7-.1.9.2.2.2.1.8.1 1.1zm0-2.2c0 .8-1.1.7-1.6.6-.6-.1-.5-.4-.6-.9 0-1 .1-1.3 1.2-1.3.3 0 .8-.1 1 .2.1.4 0 1 0 1.4zm-.1-2c-.3.3-1.1.1-1.4.1-.5 0-.6-.2-.6-.5v-1c0-.3.1-.6.4-.6h1.7c0 .3.1.6.2 1-.1.3-.1.8-.3 1zm.4 1c0-.2.1-.5.1-.7.3.7.6 1.4.8 2.2h-.4c-.2-.1-.3-.2-.4-.4-.2-.3-.2-.7-.1-1.1zm2.1 6.2c-.2.5-.8.4-1.2.3-.7 0-.9-.1-.9-.8 0-.3-.1-1 .1-1.2.3-.3 1.2-.1 1.6-.1.7 0 .6 1.4.4 1.8zm0-2.3c-.3.3-.9.2-1.3.2-.3 0-.5 0-.7-.1 0-.1-.1-.2-.2-.2v-.3c0-.3-.2-1.1.1-1.4.1-.1.2-.1.3-.1h.8c.4.6.8 1.3 1.2 1.9-.1-.1-.1 0-.2 0zm.3-8.6v-.2c0-.2.1-.5.1-.8.1-.6.2-1.2.3-1.7h.1c0 1.3.1 2.6.3 3.9h-.2c-.1-.1-.3-.3-.3-.4 0-.1-.1-.2-.1-.3 0 .1 0 .3.1.4.1.2.2.3.3.4-.1 0-.1.1-.2.1 0 0-.1 0-.1.1-.1 0-.1 0-.2-.1-.1 0-.1-.1-.1-.2-.1-.4.4-1 0-1.2v.2-.2zm0 2.6c0-.4.1-.9.4-.9.1.1.2.1.2 0h.1c.1-.1.2-.1.3-.1.3.7.4 1.7.9 2.3h-.3c-.6 0-1.4.2-1.6-.4.1-.2 0-.6 0-.9zm2.3 5.7c-.1.3-.1.5-.5.5s-.8-.1-1.2.1c-.4-.6-.4-1.4-.5-2.1.4-.3 1.9-.4 2.2.1.1.2 0 1.1 0 1.4zm0-3.8c-.1.5.2 1.1-.1 1.5-.3.4-1 .3-1.4.3-.8 0-.7-.2-.7-1 0-.5-.2-1.2.5-1.2h-.1.1c.4 0 .8.1 1.3 0h.2c.1 0 .2.2.3.3-.1 0-.1.1-.1.1zm16.8-39.9c.1.2.1.3.2.5v.5c0 .2-.1.8-.2.9-.2.2-.9-.1-1.4-.3v-.2c0-.1 0-.2.1-.3 0-.2 0-.5.2-.6.2-.1.6-.1.8-.1.1 0 .1 0 .1-.1.2-.1.2-.2.2-.3zm-1.2-2.6h.9c0 .1 0 .1-.1.2-.3.3-.3.7-.3 1 0 .3 0 .6.2.8h-.1c-.1 0-.2 0-.2.1 0 0-.1 0-.1.1-.3 0-.5 0-.6-.2-.3-.3-.2-.8-.2-1.2 0-.4 0-.6.5-.8zm-.9 2.1c-.2.2-.8.1-1.1.1-1 0-1-.3-1-1.3s.6-.7 1.4-.8h.3c.4 0 .5.2.6.7 0 .3 0 1-.2 1.3zm-.9-5.5c.3.1.6.3.8.7h-1c-.4 0-.8 0-1.1-.4.5-.4.9-.4 1.3-.3zm-3.7 1.3c.2 0 .4-.2.5-.4.1 0 .1-.1.2-.1.3.4 1.1-.1 1.4.4.1.1.1.3.1.5 0-.3.1-.5.2-.6.2-.3.8-.2 1.1-.2.2 0 .5-.1.7 0 .1 0 .2.1.2.2.1.3 0 1.5 0 1.6-.2.5-.8.3-1.3.3-.2 0-.6.1-.8-.3 0-.1-.1-.2-.1-.4 0 .4-.2.8-.5.8-.4 0-1.4.2-1.7-.2-.1-.1-.1-.4-.1-.7.1-.2.1-.6.1-.9zm.8 4.6c.3 0 .6-.1.8-.1.3 0 .5.1.6.5 0 .2.1.5 0 .8v.3c-.1.2-.2.5-.5.6-.2 0-.5.1-.8.1h-.4c-.4-.1-.3-.3-.3-.7-.1-.1-.1-.1-.1-.2v-.3c0-.5 0-.8.7-1zm-.6-2.1c.2-.6.9-.3 1.4-.4.6 0 .6.3.6.8 0 .3.1 1-.1 1.2-.2.3-1.6.3-1.9.1-.3-.2-.2-1.3 0-1.7zm.8 4.6c.3 0 .8-.1 1 .1.3.2.2.9.2 1.2 0 .9-.6.9-1.4.9-.8 0-.8-.4-.8-1.2-.1-.9.1-1 1-1zm.5 4.6c-.7 0-1.4.2-1.5-.7 0-.3 0-.9.1-1.2.2-.3.6-.3.9-.3.8 0 1.2-.1 1.2.8 0 .8.2 1.4-.7 1.4zm-1.4 6c.1-.7.4-.7 1-.7 1 0 1.1 0 1.1.9v.6c0 .2 0 .4-.3.6-.3.1-1.4.1-1.7-.1-.2-.1-.3-.4-.3-.6.1-.2.2-.5.2-.7zm2-1.2c-.3.3-.9.2-1.3.1-.7 0-.7-.4-.7-1v-.1c0-.9.1-1.1 1.1-1.1.7 0 1.1-.1 1.1.7v.6c0 .4-.1.7-.2.8zm.1-2.8c-.1.6-.3.5-.9.5-.9 0-1.2 0-1.3-.9 0-.4-.1-.9.2-1.2.3-.2 1 0 1.3-.1 1-.1.8 1.1.7 1.7zm-3.5 3c-1 0-1.2-.1-1.1-1.1 0-1 .2-1.1 1.1-1.1 1 0 1.1.1 1 1 .1 1 0 1.2-1 1.2zm.1 2.5c-.9 0-1.2 0-1.2-.9 0-1 0-1.3 1.1-1.3 1 0 1.1.1 1.1 1.1 0 .9 0 1.1-1 1.1zm.7-5c-.2.1-1.2.1-1.4 0-.6-.2-.3-.6-.4-1-.1-.6-.1-.5 0-.3-.1-.6-.1-.9.7-.9.5 0 1.3-.2 1.5.4-.1.4 0 1.6-.4 1.8zm-1.9-11.5c.1-.1.1-.2.3-.1 0-.1.2-.2.3-.4h.8s0 .1-.1.1c.1 0 .1-.1.2-.1h.6v.5c0 .4.2.8.1 1.1-.1.6-.9.4-1.4.4-1.1.1-.8-.6-.8-1.5zm.1-.4h.5c-.1.1-.2.2-.3.4-.2 0-.1 0-.3.1 0-.3 0-.4.1-.5zm-.1 7.8c.1-.6.7-.5 1.2-.4.3 0 .6-.2.8 0 .2.2.1.6.1.9 0 .5.1 1-.4 1.1-.3.1-1.4.1-1.6-.1-.2-.2-.1-1.3-.1-1.5zm0-1.5v-.4c0-1 .1-1.1 1.1-1.1s1.1 0 1.1 1v.4c0 .5-.1.8-.8.8-.3 0-.9.1-1.2-.1-.2-.1-.2-.4-.2-.6zm2.2-2.5c0 .8-.6.7-1.3.7-.7 0-.9-.3-.9-.8v-.4c0-1 .2-.9 1.2-.9.3.1.7 0 .9.3.1.1.1.3.1.5v.6zm-2.3-5.1c.4-.1.7-.4 1-.7 0 0 .1 0 .1-.1l.6-.3v.4h.5c0 .4.1 1.1-.1 1.4h-1.9l-.2-.2v-.5zm-.5 3.3c-.3.1-.8 0-1.1 0-.7 0-.7-.2-.8-.8 0-.3-.1-.9.1-1.2.2-.2.7-.2 1-.2.7 0 1-.1 1.1.7 0 .5.1 1.2-.3 1.5zm.3 16.2c0 .3.1.8-.1 1-.1.1-.2.1-.4.1h-.9c-.3 0-.7 0-.8-.4-.1-.3-.1-1.4.1-1.6.1-.1.4-.2.6-.2.3 0 .7.1.9.1.5.1.5.3.5.6 0-.1 0-.1 0 0 .1.2.1.3.1.4zm0-9.3c-.1.8-1.1.5-1.7.5-.6 0-.4-.6-.4-1 0-.3-.2-.8.1-1.1.2-.2 1.6-.3 1.9-.1.2.4.1 1.4.1 1.7zm-2.2 4.2c0-1 .2-.8 1.1-.8.9 0 1.1 0 1.1.9 0 1 0 1.3-1.1 1.3-1-.1-1.1-.5-1.1-1.4zm.2-3.2c.3-.2 1.5-.3 1.8 0 .1.2.1.8.1 1.1 0 .2.1.7 0 .9-.2.3-1.6.1-1.8 0-.5-.2-.4-1.8-.1-2zm2-3.8c0 .9-.6.9-1.4.9-.7 0-.8-.4-.8-.9V61c0-.9.5-.7 1.3-.7s.9.3.9.8v.5zm-2.3-6.7c.2-.1.5-.2.7-.3.2-.1.4-.1.6-.2.3 0 .6-.1.8-.1v.4c-.1.2-.3.3-.8.4-.5 0-.9 0-1.3-.2 0 .1 0 0 0 0zm-.3 11.3c.1.2.2 1 0 1.2-.2.2-1 0-1.3 0-.9 0-.8-.6-.8-1.4 0-.8.3-.8 1.1-.8.2 0 .9-.1 1 .1.2.3-.2.6 0 .9zm.1-1.7c-.1.7-.9.5-1.5.5-.9-.1-.5-.6-.6-1.3-.1-.3-.1-.7.2-.9h.9c.3.1.8 0 .9.1.3.2.2 1.2.1 1.6zm-2.1-3.6c0-.9.7-.6 1.4-.6.4 0 .6-.1.8.3.1.3 0 .8 0 1.1 0 .4 0 .6-.5.7h-.3c0-.1-.1-.1-.2-.1h-1.1c-.3-.3-.2-.9-.1-1.4zm.5-5.3c.3-.1.6-.2 1-.3.5 0 .6.3.6.7 0 .3.1 1.2-.1 1.4-.2.3-1.2.2-1.5.2-.3 0-.5-.1-.6-.5.1 0 .1-.1.1-.2 0-.3-.1-.7-.1-1l.6-.3zm-1 .4c.1.3.1.6.1.9 0 .1 0 .1.1.1v.3c-.2 0-.3.1-.3.2h-.5v-.4c-.3-1 0-.7.6-1.1zm-2.2 3.7c.4-.6 1-1.1 1.3-1.8h.6c0 .2.2.3.3.3v.4c0 .3.1 1.4-.4 1.3-.5 0-1.2.1-1.8 0v-.2zm2.3.8c-.1.4.2 1.5-.1 1.8-.1.1-.3.1-.5.1 0-.1-.1-.1-.2-.1-.2 0-.3.1-.5.2-.5-.5-.7-1.1-1-1.7.2-.8 2.3-.5 2.3-.3zm-1 2.4c.1 0 .2-.1.3-.1h.1c.2 0 .4 0 .6.2.2.2.1.9.1 1.2 0 .6-.1.7-.4.8h-.4c.3-.8 0-1.5-.3-2.1zm-1 6.5c.1-.6.3-1.2.4-1.8.3.1.7 0 1 0 .7 0 .5.7.5 1.2 0 .2.1.6 0 .8-.2.4-1 .3-1.5.2 0-.1-.2-.2-.4-.4zm.5 1.3c.1-.1.1-.2.1-.3v-.1c.5 0 1.5-.3 1.4.4 0 .4.1 1.2-.1 1.5-.3.3-.6 0-.9.2-.2-.5-.4-1.1-.5-1.7zm1.6 3.6c0 .2-.2.3-.3.5-.1.3.1.5.2.7v.4c-.2 0-.3-.1-.3-.3-.1-.2-.1-.6-.1-.9 0-.7-.2-1.4-.4-2.1.7.2 1 .2 1 1-.2.2-.1.5-.1.7zM106 67c-.2.6-.9.4-1.5.4.1-.6.3-1.2.3-1.8v-.1c.2 0 .3-.1.3-.2h.4c.7-.1.6 1.3.5 1.7zm.1-7.4c0-.4 0-1 .2-1.4.1-.1.2-.1.2-.2h.1c.1 0 .1 0 .2-.1h-.1c.5-.2 1.4-.2 1.6.1.4.1.2 1 .2 1.3 0 .1-.1.2-.1.2h-.1c0 .7-1 .5-1.5.5-.3 0-.8.2-.7-.4zm.7 10.6c.2 0 .5-.1.8-.1s.6 0 .8.2c.2.2.1 1.3.1 1.6-.1.4-.4.4-.7.4h-.3c-.2.1-.4 0-.6 0-.5 0-.5-.1-.5-1-.1-.5-.2-.9.4-1.1zm1.7 3.5c0 1-.1 1.1-1.1 1.1-1.1 0-1.1-.3-1.1-1.3 0-.9.5-.9 1.3-.9.9 0 .9.3.9 1.1zm0 3c-.8-.3-1.5-.5-2.2-.8v-.1c0-.1 0-.2.1-.3.1-.2.1-.3.5-.4h.2c.3 0 .6.1.8.1.8.2.6.8.6 1.5zm0-7.3c-.2.7-.9.5-1.4.5h-.2c-.2 0-.4 0-.5-.3v-1.3c.1-.5.2-.5.6-.6.3 0 1-.1 1.2 0 .3.1.4.6.4 1 0 .3 0 .5-.1.7zm.5.8c.2-.1 1.7 0 1.9.1.1.3.1 1.5 0 1.7.1-.2.1-.5.1-.8 0 .2 0 .6-.1.8-.2.4-1.7.4-2 .2-.5-.1-.3-1.8.1-2zm.6 7.2s-.1 0 0 0h-.1c-.1-.1-.2-.1-.2-.2-.2-.1-.3-.2-.5-.3.3-.5-.1-1.3.3-1.6.2-.2 1.6-.2 1.9 0 .2.2.3 1.6.1 1.9-.2.4-.7.1-1.1.2-.2-.1-.3-.1-.4 0zm1.3 9.7c-.2.3-.6.2-.9.2-.3-.7-.5-1.5-.9-2.2.5 0 1.8-.3 1.8.5v.1c.1.3.2 1.1 0 1.4zm-.3 2.9c0-.8-.2-1.5-.5-2.1.5 0 .8 0 .8.5.1.5.1 1.3-.3 1.6zm-.8-.3c-.1 0-.3 0-.4-.1-.2 0-.4-.1-.6-.3-.1-.2-.1-.6 0-1 0-.1.1-.2.1-.3.4.5.7 1.1.9 1.7zm.1-12.1h.3c.8 0 .9.1.8.9-.4-.3-.8-.5-1.1-.9zm-1 2.4h.4c.5.1 1.1.2 1.6.4v.5c0 .1 0 .1.1.1 0 .4.2.8-.1 1.1-.2.3-1 .1-1.3.1-.4 0-.6 0-.8-.4-.1-.4 0-1.3.1-1.8zm-2.4.2c.2-.2 1.5-.2 1.7 0 .4.2.4 1.3.2 1.7-.2.7-.8.2-1.3.5 0 0-.1-.1-.2-.1l-.6-.6V81c.1-.3 0-.6.2-.8zm-.1 5.9c0-.2.1-.4.1-.6.8.4 1.3 1.2 1.9 1.8h-1.5c-.2 0-.4-.1-.5-.3-.1-.3-.1-.6 0-.9zm1.3 3.6h-.5c-.9 0-.9-.2-.9-1.2.1-1 .3-1 1.3-1 .9 0 .8.3.8 1.2.1.9 0 1-.7 1zm.8 1.2v.3c0 .8-.1 1-1.1 1s-1.1-.1-1.1-1.1c0-.9.1-1.1 1-1.1s1.2 0 1.2.9zm-1 1.6c1 0 1.1.1 1.1 1.1 0 .9-.1 1.1-1 1.1-1 0-1.2-.1-1.2-1.1-.1-1 .1-1.1 1.1-1.1zm-3.1-12.4h1.2c.5 0 .5.4.5.9 0 0-.1.1-.1.2v.2c-.6-.5-1.1-.9-1.6-1.3zM106 87c-.3.3-1.1.2-1.5.2 0-.3.1-.5.1-.8v-.1c.2-.6.6-1 1.1-1.2h.1c.2 0 .2.1.2.2v.2c0 .1 0 .2-.1.3 0 .6 0 .9.1 1.2zm-1.6.3c.2.3.6.1.9.2.3 0 .5-.1.7.2 0 .1.1.2.1.4 0 .3 0 .7-.1.8 0 1.2-1.1.4-1.9.8 0-.7.1-1.5.3-2.4zm-.2 2.6c.4.1.9.2 1.4.1.5 0 .5.2.5.6 0 .3.1 1.1-.1 1.4-.3.6-1.8-.1-1.8.5-.2-.9-.1-1.8 0-2.6zm1.9 3.5c0 .3 0 .6-.1.8-.1.8-1.2.5-1.8.5-.1-.5-.1-1.1-.1-1.6v-.5c.5 0 .9.1 1.4 0 .5-.2.6.3.6.8zm-2.2 4.7v-.2l.3.3c.2.1.3.3.5.5-.1-.5-.1-1-.2-1.4.3.2.7.1 1.1.1.6 0 .4.6.4 1.1 0 .5.1.9-.4 1.1-.2.1-1.4.1-1.6-.1-.3-.2-.2-1-.1-1.4zm2.1 3.5c-.1.6-.5.5-1.1.5h-.2c-.5 0-.8-.1-.8-.7 0-.3-.1-.9.1-1.2.2-.4.7-.3 1.1-.3.4 0 .8-.1 1 .4 0 .3 0 1-.1 1.3zm0-4.9c-.2.7-.9.3-1.5.5-.1-.8-.2-1.5-.3-2.3h1.3c.7 0 .6 1.4.5 1.8zm2.3 5.4H107c-.2 0-.4 0-.6-.2-.2-.3-.1-1.5.1-1.8.3-.3 1.1-.3 1.5-.2.2 0 .3.1.4.2v2c0-.1-.1 0-.1 0zm-.3-2.5c-.6.1-1.7.2-1.6-.7 0-.4-.2-1.1.1-1.4.1-.1.3-.1.6-.1h.8c.7 0 .6.4.6 1s.2 1.1-.5 1.2zm.5-3.1c0 .8-.8.6-1.5.6-.4 0-.6 0-.7-.3-.1-.3 0-.8 0-1.1 0-.8.5-.7 1.2-.7h.4c.8-.1.6 1 .6 1.5zm0-12.4s0-.1 0 0c0-.1 0-.1 0 0-.3-.5-.6-.8-.9-1.2 0-.1 0-.1-.1-.2l-.1-.1c.3 0 .8-.1 1.1.2.2.2 0 1 0 1.3zm.6-1.5c.4-.2 1.8-.2 1.8.4 0 .4.2 1.3-.1 1.6-.4.3-1.4.1-1.8.1-.1-.1-.2-.2-.3-.4.2-.5-.2-1.4.4-1.7zm.1 18.9l-.1.1-.2.2v-1.3c.1-.3.2-.6.5-.7 0 .3-.1 1-.1 1.5-.1 0-.1.1-.1.2zm.1-1.9c-.8 0-.7-2.1-.2-2.1.3 0 .3.2.3.4 0 .5 0 1.1-.1 1.7zm.2-2.6c-.9.2-.7-.8-.7-1.4 0-.6.3-.7.8-.7h.2c-.3.7-.2 1.4-.3 2.1zm.5-2.3c-1.1 0-1.2-.3-1.2-1.3v-.1c0-1.1.8-.8 1.7-.8.2 0 .4 0 .4.3-.2.7-.5 1.3-.9 1.9zm.9-2.6c-.4.1-1.6.3-2 0-.3-.2-.2-.9-.1-1.2 0-.7.2-.9.8-.9h.3c.1.2.2.6.4.9.1.2.2.4.5.5.1-.5-.1-.9 0-1.4.1 0 .2.1.2.2 0 .5 0 1 .1 1.6-.1.1-.1.2-.2.3.1 0 .1-.1 0 0 .1-.1.1 0 .1 0h-.1zm.1-32.8c0 .7-.4.7-.9.7h-.2c-.8 0-1 0-1-.9 0-1.2.3-1.4 1.5-1.3.6 0 .7.3.7.8 0 .2-.1.4-.1.7zm.3 16.3c.2-.6.9-.5 1.4-.5.6 0 .8.2.8.7v-.1.4c0 .4.2.8-.2 1.1-.3.2-1 .1-1.3.1-.9 0-.9-.9-.7-1.7zm.3 16.1c0 .1-.1.1-.1.2-.1-.5-.1-1.1-.1-1.6.1-.2.3-.3.6-.3h.6c-.4.6-.7 1.2-1 1.7zm1.1-2c-.9-.1-1.4.1-1.3-.9 0-.4-.2-1.4.5-1.2.5.1.9 0 1.4 0 0 .7-.2 1.5-.6 2.1zm.7-3c-.1.6-1.8.8-2 .2-.1-.3-.1-1.1 0-1.4.1-.7.9-.5 1.5-.5.5 0 .6.1.6.6 0 .3 0 .8-.1 1.1zm-2.1-2.8v-.3c0-.8.1-1 1.1-1s1.1.2 1.1 1.1c0 .9-.2 1-1.1 1-.8.1-1.1 0-1.1-.8zm2-1.7c-.3.2-1.5.2-1.7 0-.3-.2-.3-.8-.3-1.2 0 0 .1-.1 0-.2v-.1c.3.1.7.2 1 .3.1 0 .5.3.6.3.5-.1-.3-.9-.5-1.1.5 0 .9-.1 1 .4.1.3.2 1.3-.1 1.6zm.1-2.6c-.2.3-.6.1-.9.2 0-.3-.2-.5-.5-.7-.2-.1-.4-.2-.6-.2l-.1-.1c.3-.4-.3-1 .4-1.2.4-.1 1.4-.1 1.6.1.2.3.3 1.7.1 1.9zm.3-4.7c.1 0 .1.2-.1.2s-.1-.2.1-.2zm.5 7.1c-.6.5-.5-.7-.5-1.1 0-.7.2-.9.8-.7h.2c-.3.5-.2 1.2-.5 1.8zm.8-2.4c-.1.1-.1.1-.3.1-.3.1-.6.1-.8 0-.3-.2-.1-.8-.1-1.1 0-.4-.1-.7.2-.9.2-.2.8-.1 1.2-.1h.4v.1c-.2.7-.4 1.3-.6 1.9zm.5-3.3c-.1.3-.2.5-.2.7v.1c0 .1 0 .1.1.2h-.2c-.5 0-1.2.1-1.5-.2-.2-.2-.2-1.5-.1-1.7.2-.4 1.1-.3 1.5-.3.9.2.2.6.4 1.2zm.5-2.3c0 .3 0 .6-.3.8-.3.2-1.2 0-1.5 0-.8-.4-1.9.4-2.6 0-.4-.2-.4-1.3-.3-1.7.1-.4.5-.5.9-.5h.5c.7 0 .7.3.7 1 0 .2.1.6.2.7 0 0 .1-.1.1-.2 0-.3-.1-1 .1-1.3.1-.1.3-.1.5-.1h1c.2 0 .4 0 .6.2.2.2.1.8.1 1.1zm.3 1.1c-.1-.4-.1-.9-.1-1.3v-.4c0-.5.1-.6.3-.7h.8c-.3.9-.6 1.6-1 2.4zm1.2-2.8h-.1c-.1-.1-.2-.1-.4-.1.1 0 .3 0 .3.1h-.7c-.1 0-.1 0-.2.1-.1 0-.2-.1-.3-.2-.1-.2-.2-.6-.2-1v-.4c0-.6.6-.6 1.2-.6 0 .1.1.2.2.2h.2-.2.3c.1 0 .4.1.6.1-.1.6-.4 1.2-.7 1.8zm.9-10.3s-.1 0-.1.1c-.2.1-.6.1-.8.1h-.9c-.1 0-.1 0-.2.1-.2-.4-.1-1.7.1-1.9.7.4 1.3.8 1.9 1.3v.3zm.1 1.7c0 .2 0 .7-.1.9-.2.5-.6.3-1 .3-.6 0-1 .1-1-.5 0-.3-.2-.9-.1-1.3h.2c.5-.1 1.1 0 1.6-.1.1 0 .1.1.2.1.1.2.2.4.2.6zm-2.1 1.7c.3-.3 2-.3 2 .2s.2 1.5-.3 1.8c-.3.2-1.6.1-1.8-.2-.2-.3-.2-1.5.1-1.8zm2 4c0 .3-.2.5-.5.5h-.6c-1.1 0-1.1-.4-1.1-1.4 0-1.1.6-.7 1.5-.8.5 0 .7.5.7 1 .1.2 0 .5 0 .7zm-2-9.9c-.1-.2-.1-.3-.2-.5-.1-.5.1-1.1.7-1.2h.6c.4 0 .9.1.9.5v.9c0 .1 0 .1.1.2-.7-.2-1.5-.5-2.1.1zm2.3-5.3c0-.2.1-.5.1-.8v-.3c.2.2 1.3 1.3 1.6 1.8 0 .1-.1.1-.1.2-.2-.1-.3-.1-.5-.1h-.5c-.4 0-.6-.1-.6-.8zm0 15.1v-.8c0 .1 0 .1 0 0v-.2c0-.2 0-.4.2-.4.1-.1.3-.1.6-.1-.2.5-.5 1-.8 1.5zm1.9-4.4c0 .1 0 .3-.1.4 0 .9-.6 1.5-.9 2.3-.3-.1-.4-.1-.6-.2-.3-.1-.2-.3-.3-.9 0-.4-.2-.9.2-1.1.2-.1.6-.1 1-.1h.6l.1-.4c-.2.1-.4.1-.6.1-.4 0-.8 0-1-.1-.3-.2-.2-.5-.2-.8 0-.2-.1-.7 0-1 .3-.1.5-.2.7-.3h.6c.1 0 .2.1.4.2s.3.2.5.2c-.2.6-.3 1.1-.4 1.7zM62.1 96.3l-4.4-4.2-2.5-1.5-3.6-4-1-2.7-.2.5-.4-1.8c-.1-.3-.1-.6-.1-.8l-1.3-3.5-1.1-.8-1.1.8.5-2c.1-.5.3-.8.5-1.2.2-.3.4-.7.6-1l1.9-4.6-1.9-9.3-14.6-1.7-.9 4.2 1.3 3.3.2 22.5 3.2 1 1.1 2.7 14.4 10.6-.5 1.9 1.5 2-.3 1.8 10.6 3.1 1.1-3.1.6-1.6-.3-2.9 1.8-3.9-5.1-3.8zM47 80.3c.1-.2.4-.2.6-.3h.1c-.1.8-.1 1.6-.1 2.3-.1-.3-.4-.5-.4-.9 0 .4.2.6.4.9-.7-.2-.6-.4-.6-1.1 0-.1-.2-.7 0-.9zm.6 2.2c.1.5.1 1 .2 1.6-.2.2-.2.4-.2.7-.6-.1-.7-.4-.7-1.1 0-.7.1-1 .7-1.2zm-1-1.9v1c0 .8-.4.6-1.1.6.3-.6.6-1.1 1-1.6 0 .1 0 .1.1 0-.1.1 0 .1 0 0zM44.7 76v-.1.1c0-.6.4-.6.8-.7-.3.4-.5.9-.6 1.5v.1c0 .1-.1.2-.1.4-.2-.1-.3-.3-.3-.6s-.1-.9 0-1.2c0-.1.1-.1.1-.2.1-.1.7-.1 1.1 0 0 .1-.1.1-.1.2-.3.1-.7 0-.8.4-.1.2 0 .7.1.9l.1.1c-.3-.4-.3-.6-.3-.9zm1.9-7.2c0 1-.1 1.1-1.1 1.1-.9 0-1.1-.1-1.1-.8v-.3c0-.9.2-1 1.1-1 1-.1 1.1.1 1.1 1zm0 2.6c0 .8 0 .9-.9 1-.9 0-1.3.1-1.3-.8 0-1 0-1.3 1.1-1.3 1.1-.1 1.1.1 1.1 1.1zm-2.2-8c.1-.8.4-.5 1.1-.6.9-.1 1.1-.1 1.2.8 0 .6.1 1.2-.6 1.3-.4.1-1.3.2-1.6-.2-.2-.2-.1-1.1-.1-1.3zm2.2 10.4c-.1.2-.2.4-.2.6-.2.2-.4.4-.6.7-.4-.1-.9 0-1.1-.3-.3-.2-.2-.7-.1-1 0-.4-.1-.9.3-1.1.3-.2 1.2 0 1.6 0 .2 0 .1.7.1 1.1zm.1-7.4c0 1-.1 1.1-1.1 1.1s-1.1-.2-1.1-1.1c0-.9.1-1.1.9-1.1h.1c1 0 1.2.1 1.2 1.1zm.2-5.4c.1 0 .1 0 .2.1s.2.2.2.4c.1.2.1.5.2.7h-.4c-.1-.2-.2-.3-.2-.5 0-.1.1-.4 0-.7zm0 2.1c0-.1.2-.2.3-.3h.4c.1.8.2 1.7.3 2.1v.2c.2.9.3 1.7.5 2.6-.7-.3-1.5.2-1.5-.8 0-.6-.2-1.6.6-1.5.2 0 .3-.1.3-.3-.9 0-1 0-1-.9v-.1c.1-.4 0-.7.1-1zm0 5c.1-.3.1-.4.5-.4h1c.1.4.2.9.2 1.4 0 .3 0 .6-.1.8-.6 0-1.5.2-1.6-.4v-1.4zm.4 2.2c.4-.1.8-.1 1.2 0v.2c-.5.6-1 1.3-1.3 2-.4-.5-.6-2 .1-2.2zm-7.7-9.8c.4-.5 1.4.1 1.9-.3.2 0 .3 0 .5.1-.7.1-.2 1.5-.3 1.9-.2.4-1.5.4-1.9.2-.5-.2-.5-1.6-.2-1.9zm4.5 11.3c0 .2-.1.4-.3.5-.3.1-1.4.2-1.7-.1-.1-.1-.1-.2-.1-.4v-1.3c.2-.7 1.1-.3 1.6-.3.4 0 .5.2.5.5v1.1zm-.1 7.8c-.1.1-.2.1-.4.2H43c-.9 0-1-.6-1.1-1.5 0-.8.7-.7 1.4-.7.8 0 .9.3.9 1v.3c-.1.4-.1.6-.2.7zm0 .6c-.1.7-.4 1.4-.6 2.1-.9 0-1.3.1-1.4-.9 0-.4-.1-1 .2-1.2.3-.3 1.4-.2 1.8 0zm0-6.2c0 .4-.1.8-.6.8h-.9v.1c-.6 0-.7 0-.7-.6 0-.3 0-1.3.3-1.5.2-.2 1.6-.2 1.9 0 .2.2 0 1 0 1.2zm.1 2.5c0 1-.4.9-1.3.8-1-.1-1-.5-.9-1.5.1-.8.5-.6 1.3-.6 1 0 .9.5.9 1.3zm0-7.7c0 .4 0 .9-.3 1.1-.3.1-1.1 0-1.4 0-.4 0-.5-.3-.5-.6s-.1-1.1.1-1.3c.2-.3 1.4-.3 1.7-.2.5.1.4.5.4 1zM42 66.4c0-.9.1-1.1 1-1.1 1 0 1.2.1 1.2 1.1s-.1 1.1-1.1 1.1c-1.1 0-1.2-.1-1.1-1.1zm2.1-2.4c0 .7 0 1-.9 1s-1.3 0-1.3-.9V64c0-.9.1-1.2 1.1-1.2.9 0 1.1 0 1.1.9v.3zm-3.5 1.3c1 0 1.1 0 1.1 1v.4c0 .5-.1.7-.8.7-.9 0-1.4.1-1.4-.9v-.3c0-.7.1-.9 1.1-.9zm-1.1-1.4c0-.8 0-1.1.9-1.1 1 0 1.3.1 1.3 1.1s-.1 1.1-.9 1.1h-.2c-1-.1-1.1-.2-1.1-1.1zm.6 3.8c.5-.1 1.2-.2 1.5.3.2.3.2.7.1 1 0 .2-.2.5-.2.8h-.4c-.1 0-.2 0-.2.1h-.1c-.3 0-.7.1-.9 0-.2-.2-.3-.7-.3-.9-.2-.7-.1-1.2.5-1.3zm-.6 2.8c.2-.4 1-.3 1.5-.3h.5c.2.2.2.7.2 1.1 0 .3 0 .7-.1.8-.2.4-1.4.4-1.8.2-.3-.1-.4-.7-.4-1.2 0-.2 0-.5.1-.6zm.9 4.6c1 0 1.2.3 1.2 1.3 0 .8-.1.9-.8.9h-.6c-.8 0-.8-.2-.8-1.1.1-.8.1-1.1 1-1.1zm-.9-1.3c0-1 .1-1.1 1.1-1.1s1 .1 1 1.1c0 .9-.1 1.1-1.1 1.1-.8-.1-1-.2-1-1.1zm1.1 8.8c.9 0 1 .1 1.1 1 .1 1-.1 1.1-1.1 1.1h-.2c-.8-.1-.9-.2-.9-1.1 0-.9.1-1 1.1-1zm-1.1-1.4c0-.9.1-1 1.1-1s1.1.2 1.1 1v.2c0 .9-.2 1-1.1 1-.9-.1-1-.1-1.1-.8v-.4zm2-1.5c-.2.2-.8.1-1.1.1-1 0-1-.3-1-1.3.1-1.1.7-.9 1.6-.9.7 0 .5.4.5.9.2.3.3 1 0 1.2zM37 74.2c0-.4-.1-1.1.2-1.3.3-.2 1.2-.2 1.5-.3.8 0 .6 1.8.2 2.1-.3.2-1.4.4-1.7.2-.3-.1-.2-.3-.2-.7zm.8-4c.2.1.7 0 1.1 0 .4 0 .3.2.3.5v1.2c-.1.6-1.1.4-1.6.4-.8 0-.6-.6-.6-1.3 0-.5.1-.9.8-.8zm1.4-.7c-.2.7-.8.4-1.4.4-.8 0-.8-.1-.8-1 0-.4-.1-1 .4-1.1.3-.1.8 0 1.1 0 .9-.2.8 1.1.7 1.7zm-1.4-1.9c-.4 0-.6 0-.8-.4-.1-.1 0-.5 0-.6v-1c.1-.4 1.4-.3 1.7-.2.5.2.4.8.4 1.3H39c.1 1.2-.2.8-1.2.9zM37 62v-.5c0-.4 0-.9.2-1.1.3-.3 1.2-.1 1.5 0 .4.2.5.5.5 1 0 1.1-.2 1.2-1.3 1.2h-.2c-.4-.1-.7-.1-.7-.6zm2.2 1.9c0 .8 0 1.1-.8 1.1-.9 0-1.4.1-1.4-.9v-.2c0-.8.1-1.1 1.1-1.1.9 0 1.1.1 1.1.9v.2zm-2.1-4.3c.6 0 1.3.1 1.9.2h.2c-.6 0-1.1.2-1.7.1-.3.1-.4-.1-.4-.3-.4 0-.6.4-1.1.4-.3 0-1 .1-1.1-.3v-.4c.7.1 1.5.1 2.2.3zm-1.8 4.2c-.2-.3-.3-.6-.5-.9.5-.2 1.1-.1 1.6-.1s.4 1.9 0 2.1c-.2.1-.7.1-.9-.1-.3-.2.1-.7-.2-1zm.8 8.6c-.7 0-.7-.2-.8-.8v-.4c.2-.4.1-.7.5-.9.4-.2.9-.1.9.4 0 .7.3 1.6-.6 1.7zm.1 2.4c-.9.1-.9-.2-.9-1 0-.7-.1-1.2.7-1.2.6 0 .7.2.7.8 0 .7.2 1.3-.5 1.4zm-.8-8.1c0-.7.1-1.4.8-1.3h.2c.2.1.3.5.3 1s-.1 1-.3 1.1c-.1.1-.7.1-.9 0-.2-.1-.1-.4-.1-.8zm-.8-6c0-.1 0-.3.1-.4.4 0 1.4-.2 1.7 0 .3.2.2.6.2.9 0 .4.1.9-.2 1.2-.3.2-1 .1-1.3.1-.2 0-.4 0-.5-.1 0-.2-.1-.5-.2-.7.2-.4.3-.7.2-1zm2 27.3c-.1.2-.2.3-.3.4l-.1.1c-.6-.2-1.6-.7-1.6-1 .5 0 1.9-.3 2.1.3-.1.1-.1.2-.1.2zm.1-1.4c.1.9-1.6.6-2.2.6 0-.2-.1-.4-.1-.6 0-.6.2-1.1.3-1.7.5.2 1.4-.1 1.7.2.5.3.3 1.1.3 1.5zm-1.9-1.8c.1-.7.2-1.5.4-2.2.7 0 1.5-.2 1.5.7 0 .8.1 1.6-.8 1.5-.4-.1-.7 0-1.1 0zm1.9-3.3c0 1-.6.8-1.5.8v-.1l-.1-1.3c.1-.2.2-.5.3-.7.4 0 .8-.2 1.1.1.4.1.2.8.2 1.2zm-1.4-2.8c0-.4 0-.8.2-1 .4-.3 1.2 0 1.2.5 0 .8.3 1.7-.7 1.7-.2 0-.4 0-.5-.1 0-.5 0-.8-.2-1.1zm1.4-1.9c-.1.5-.8.8-1.2.4-.3-.3-.3-1.4-.1-1.7.1-.4.4-.4.7-.4h.3c.5.2.4 1.2.3 1.7zm0-7.4c-.1.4-.5.7-1 .5-.5-.2-.4-1.3-.3-1.7.1-.5.3-.5.8-.5.7 0 .6 1.2.5 1.7zm.4 10.9c.2-.3.7-.2 1-.2.4 0 1.1-.2 1.1.3 0 .4.2 1.5-.1 1.7-.2.2-1.4.1-1.7 0-.5-.1-.6-1.5-.3-1.8zm2.1-1.4v.1c0 .7-.2.8-1 .9-.8 0-1.1 0-1.1-.7v-.3c.1-1 0-1.2 1.1-1.2.9 0 .9.3 1 1.2zm-2.1 3.8c.1-.1.3-.1.5-.1h.8c.9 0 .8.7.7 1.5 0 .6-.4.6-.8.6h-.5c-.8 0-.8-.2-.8-1.1 0-.3-.1-.7.1-.9zm2.1 9.1l-.3-.3-.2-.2c-.1-.2-.3-.3-.4-.5l-.3-.6v-.5c.1.2.3.2.5.2.9 0 .7 1.3.7 1.9zm0-3.2c0 .4.1.8-.1 1-.2.2-.7.1-.9.1.2-.8.6-1.5.9-2.3.2.3.1.8.1 1.2zm-.2-1.3v-.2c-.1-.5-.6 0-.9.2-.1-.1-.3-.1-.5-.1-.1 0-.3 0-.4-.1-.3-.2-.2-.7-.2-1.1.1-1.2.6-.9 1.5-1 1 0 .8 1.8.5 2.3zm.1-10.4c-.2.5-.7.4-1.2.4-.9 0-.9-.1-.9-1 0-.4-.2-.9.2-1.1.3-.2 1 0 1.4 0 .8-.1.7 1.2.5 1.7zm.2 12.3c0-.6 0-1.6.8-1.6.6 0 1.3-.1 1.5.7.1.3-.1.9-.2 1.2-.2.5-.9.3-1.4.3-.5-.1-.7 0-.7-.6zm.2 2.1c0-1 .1-1.3 1.1-1.3.9 0 1.1.1 1 1-.1.9-.1 1.1-1 1.1-.9.1-1.1.1-1.1-.8zm2.2 2.6v.2c-.3-.2-.6-.4-.8-.6 0-.1-.1-.3-.2-.4-.1-.2-.3-.4-.4-.6.3 0 .6.1 1 0 .4.2.4.8.4 1.4zm-.9-6.7h-.3c-.2 0-.7.1-.9-.1-.2-.2-.1-.9-.1-1.1 0-.8 0-.9.9-.9.3 0 .9-.2 1.2 0 .2.2.1.7.1.9 0 .9-.1 1.2-.9 1.2zm1.5-2.2c.3-.1.6.2.7-.3-.4 0-.9.1-1.1-.3-.2-.4-.2-1.4 0-1.8.1 0 .1 0 .1-.1h1l.1.1s.1 0 .2-.1c0 .1-.1.3-.1.4-.1 1.3-.1 2.5-.2 3.8v.1h.1c.3-.6.7-1.3 1-1.9.1.5.4 2-.2 2.3-.3.1-1.6.2-1.8-.1-.3-.4 0-1.3.1-1.7 0-.3-.4-.3.1-.4zm1.2 7.2c-.5 0-1.3.2-1.5-.3 0-.1.1-.4.1-.5 0-.2-.1-.4-.1-.6 0-.8.4-.7 1.1-.7 1 0 1.1.1 1 1 0 .6.2 1-.6 1.1zm.6 3.8c0-.1 0-.1 0 0-.3-.2-.5-.5-.7-.7l-.1-.1s.1.1.2.1h.1c.4 0 .6.1.6.4-.1 0-.1.1-.1.3zm0-1.9c-.1.9-.7.4-1.3.6h-.3c-.2-.1-.4-.3-.6-.5v-.1c0-.4-.1-1.3.1-1.5.3-.3 1.3-.1 1.6-.1.7 0 .6 1.2.5 1.6zm.1-5.5c0 .3 0 .9-.2 1.1-.3.2-.9.1-1.3.1-.7-.2-.7-.5-.7-1.2 0-.9.1-1 1-1 .8 0 1.2.1 1.2.9v.1zm-.1-26.5c-.2.5-.7.3-1.1.3-.6 0-1 .2-1-.5 0-.5-.1-1.1 0-1.6.7.1 1.6.2 2.4.3.7.1 1.5.2 2.3.4 0 .3 0 1.2-.2 1.4-.3.2-.9.1-1.2.1-1.3 0-.5-.9-.9-1.8-.4.5-.1.9-.3 1.4zm2.3 35.1s-.1 0 0 0c-.8-.4-1.4-.9-2-1.3v-.1c.2-.8.3-.8 1.2-.8.4 0 .9-.1 1 .4.1.1.1.4.1.7 0 .3-.1.9-.3 1.1zm.2-10.2c-.2.3-.5.2-.8.2-.7 0-1.3.1-1.4-.7-.1-1 0-1.5 1-1.5h.3c.5 0 .8.1.8.7.2.4.2 1 .1 1.3zm-1.1 2.7c-1 0-1.1-.3-1.1-1.2 0-.9.3-.9 1.1-.9.4 0 .6 0 .8.1 0 .1.1.2.2.3 0 .1.1.3.1.5v.2c0 .9-.1 1-1.1 1zm-.9.4c.3-.2 1-.1 1.3-.1.7 0 .7.3.7 1 0 .6.2 1.1-.5 1.2-.3 0-.9.1-1.2 0-.5-.1-.4-.3-.5-.8.1-.3-.1-1 .2-1.3zm2 3.3v.1c0 .9-.1 1.1-1 1.1s-1.2-.1-1.2-.9v-.1c0-1 .2-1.1 1.2-1.1.9-.1 1 .1 1 .9zm0-8.9c-.2.4-1 .2-1.3.2-.4 0-.8 0-.9-.5.3-.6.7-1.2 1.1-1.8.4.2 1-.1 1.2.4 0 .3 0 1.5-.1 1.7zm.3.8c.1-.3.5-.3.7-.3 0 0 0 .1.1.1.1.1.1.2.2.3.1.5.2.9.2 1.4 0 .1-.1.2-.3.2H47c-.1-.1-.1-.2-.1-.4s-.1-1 0-1.3zm1.3 9.4c-1 0-1.3 0-1.3-1.1 0-1 .1-1.1 1.1-1.1.9 0 1.1.2 1.1 1.1 0 .8-.1 1.1-.9 1.1zm.9 1.4c.1.8-.2 1-1 1-.9 0-1.1-.1-1.2-1-.1-.9.1-1.1 1-1.1 1-.1 1.1.2 1.2 1.1zm0-4.8c0 .9-.3.9-1.1.9s-1.1-.1-1.1-.9c.1-1 .1-1.3 1.2-1.2 1-.1 1 .2 1 1.2zm0 7.9H49c-.7-.5-1.4-1-2-1.6.2-.2.4-.2.7-.2.4 0 1.1-.1 1.4.3.1.2.1.4.1.7-.1.3-.1.6-.1.8zm-1.3-9.5c-.4 0-.8 0-.9-.4 0-.2-.1-.8 0-1.2H48c.2 0 .3-.1.5-.1.2.4.5.8.7 1.2-.1.6-.8.5-1.4.5zm3.2 5c-.3 0-1.2.1-1.5-.1-.3-.3-.3-1.2-.2-1.6.1-.6.6-.5 1.1-.5 1.1 0 1.2-.2 1.1 1.1.1.5.2 1-.5 1.1zm.5 2.3c-.2.3-.8.1-1 .1-1.1 0-1.1-.4-1-1.4 0-.7.2-.9.7-.9h.4c.9 0 1.1-.1 1 .9-.1.4 0 1.1-.1 1.3zm-.1 3.9v.2c-.1 0-.2 0-.3-.1-.3-.2-.6-.5-.9-.8 0-.1-.1-.1-.1-.2.3 0 .5.1.8.1.5-.1.6.2.6.6 0 0-.1.1-.1.2zm-.3-1.3c-.4 0-.8-.1-1.3 0-.1-.1-.2-.1-.3-.2v-.1c0 .1 0 .1-.1.1 0 0-.1 0-.1-.1 0-.5-.1-1.4.1-1.8.2-.3 1.2-.2 1.5-.2.7.1.6.5.6 1.1.1.6.2 1.3-.4 1.2zm-.7-7.4c-.2 0-.7.1-.9-.1-.5-.4-.2-1.9.2-2.2l.1.1s-.1 0-.1-.1c.6.6 1.2 1.2 1.9 1.7 0 .7-.7.6-1.2.6zM64.3 99c.1.1.1.2.3.2l.4.4c-.7 0-.7 0-.7-.6-.1-.1 0-.1 0 0zm-.6 7.9c-.2.2-.6.1-1 .2-.6 0-1 0-.9-.7 0-.3-.1-.9 0-1.2.2-.4.7-.3 1.1-.3h.4c.2 0 .4.1.5.1v1.2c-.1.2-.1.4-.1.7zm-.1-2.3c-.4.1-1.2.1-1.4 0-.5-.1-.5-.4-.5-.9v-.6c0-.3 0-.6.3-.7.4-.2 1 0 1.4 0h.4v2.1c-.1-.1-.2 0-.2.1zm.3-3.4c0 .9-.2.9-.9.9h-.2c-1 0-1.2-.2-1.2-1.2 0-1.1.4-.9 1.4-.9.3 0 .7-.1.9.1 0 .1.1.2.1.4s-.1.5-.1.7zm-7.1-5.7v-.2c0-.1.1-.3.2-.3 0 .1.1.3.3.3v.7c0 .4 0 .7-.1 1.1v.7c0 .4-.1 1.1-.1 1.5v.3c-.2-.1-.3-.2-.3-.4 0-.3.1-.7.1-.9 0-.4-.1-.8.4-.9-.1-.2-.2-.2-.3-.4-.1-.2-.2-.5-.2-.8v-.7zm1.1 9.1h-.2c-.7 0-.8-.2-.8-.8v-.7c0-.2 0-.4.2-.6.3-.2.9-.1 1.2-.1.8 0 .7.4.7 1.1 0 .9-.2 1.1-1.1 1.1h-.2.2zm-2.4-2.5h-.3c-.8 0-.9-.3-.9-1.1 0-.9.2-1.1 1.1-1.1 1 0 1.1.2 1.1 1.2v-.3.3c0 .9-.2 1-1 1zm1 1.1v.2c0 .9-.1 1.2-1.1 1.2h-.6c-.2 0-.3-.1-.4-.3-.1-.1-.1-.4-.1-.7v-.3c0-.9.3-.9 1.1-.9.9.1 1.1.1 1.1.8zm-2.2-4.1c0-.2.1-.4.1-.6 0-.9 0-1.1 1-1.1.9 0 1.1 0 1.1.9v.3c0 .7-.1 1-.9 1-.3 0-.9.1-1.1-.1-.1 0-.2-.2-.2-.4zm1.5-2c-.9 0-1.5.2-1.4-.8 0-.3 0-.9.2-1.1.2-.3.7-.2 1-.2 1 0 1 .2 1 1.2-.1.8 0 .9-.8.9zm.7-4.2v.7c0 .4.2.9-.2 1-.3.1-1.3.1-1.5 0-.5-.2-.3-.8-.3-1.2 0-.5-.1-.9.5-.9.3 0 1-.1 1.3 0 0 .1.1.2.2.4zm-2.1-1.6c.2.5.6.8 1.2.8-.6-.1-1-.4-1.2-.8.1 0 .1-.1.2-.1l1.2.6c0 .1.1.2.2.3h-.2.2s0 .1.1.1c-.4.1-1 .1-1.3 0-.5-.2-.5-.6-.4-.9-.1 0-.1 0 0 0zm-.4 5.1c0 .2 0 .5-.1.6-.2.2-.7.1-1 .1-1 0-1-.3-1.1-1.2v-.2c0-.7.3-.8 1.1-.8s1.1.1 1.1.8v.7zm-2.1 2c0-1 .3-1 1.2-1 .9 0 1 .2 1 1.1 0 .9-.2 1-1.1 1-1.1.1-1.1-.1-1.1-1.1zm-.1-9.7c.6.7 1.2 1.4 1.9 1.9v.2c0 .3.1.4.4.5 0 .4 0 .7-.4.9-.4.2-1.7.1-1.8-.5.2 0 .5.2.8.1.1-.1.3-.1.2-.3 0 0 0-.1-.1-.1-1-.6-.9-1.7-1-2.7zm.1 4.5c0-.9.5-.8 1.2-.7 1 .1 1 .5.9 1.4 0 .9-.6.8-1.4.7-.9 0-.8-.6-.7-1.4zm2.1 8.7c-.2.2-.4.2-.6.2-.1 0-.2-.1-.3-.1h-.3c-.2-.2-.5-.3-.7-.5l-.2-.2v-.3c.1-.4-.1-.9.4-1.1.4-.1 1.8-.3 1.8.4-.1.4.1 1.4-.1 1.6zm.3 4.5c.1-.5-.1-1.3.4-1.5.3-.1 1.6-.1 1.8.1.1.2.2 1.5-.1 1.8-.3.4-.9.2-1.4.2-.3-.1-.7-.3-.7-.6zm.6 2.2c-.2-.1-.3-.3-.3-.5v-.8h.1c.1 0 .2 0 .3-.1.6 0 1.4-.1 1.5.4 0-.1 0-.1 0 0 0 .2 0 .1 0 0 0 .4-.1.8.1 1.1v.1c-.4.1-1.3.1-1.7-.2zm4.1.2v.8c-.7-.2-1.5-.3-2.2-.6v-.1c0-.5-.2-1.3.3-1.5.3-.1 1.1-.1 1.3 0 .8 0 .6.8.6 1.4zm0-2.5c-.1.8-.7.7-1.4.7-.9 0-.7-.6-.7-1.3.1-.9.4-.8 1.3-.9h.1c.8.1.8.7.7 1.5zm-.1-4.4c-.3.4-1.4.2-1.9.2.7-.7 1.3-1.4 1.9-2.1h.1c0 .6.2 1.6-.1 1.9zm.2-2.3c-.1 0-.1 0 0 0-.1 0-.1 0 0 0 .1-.1.1-.2.2-.3.2-.1.2-.4.2-.6.2-.2.4-.5.6-.8h.8c.1 0 .2 0 .2-.1.6.1.5 1.3.2 1.7-.4.4-1.6.3-2.2.1zm1.1.3h.4c.9 0 .9.3.9 1.1 0 .9-.1 1.1-1 1.1-1 0-1.2-.1-1.2-1.1-.1-1 .2-1.1.9-1.1zm1.3 10.4c0 .1 0 .1 0 0-.6 0-1.2-.3-1.7-.5h1c.5 0 .7.1.7.5zm-.9-.8c-.7 0-1.3.1-1.3-.7 0-.7-.1-1.4.7-1.5 1-.1 1.4 0 1.5.9 0 1 0 1.3-.9 1.3zm.2-2.5c-.9 0-1.5.2-1.4-.7v-.1c0-.4-.2-1 .2-1.3.2-.2.9-.1 1.2 0 .8 0 .8.4.7 1.1-.1.7.1 1-.7 1zm.7-3.1c0 .6-.3.6-.9.7-.7 0-1.3.1-1.3-.7 0-.4-.2-1.1.1-1.4.2-.2 1-.1 1.3-.1.9 0 .8.8.8 1.5zm1.4 7c-.3.1-1.1-.3-1.3-.4v-.1c.2-.5.6-.6 1.1-.5h.1c.1 0 .3 0 .4-.1.1.2 0 .9-.3 1.1zm.4-1.4c-.3 0-1.3.1-1.5-.1-.2-.2-.1-1.1-.1-1.4 0-.4.1-.6.5-.6.4-.1 1.1-.1 1.5.1.4.2.2.9.3 1.3v.1c-.2.1-.5.3-.7.6zm.4-9.9c-.4.1-1.2.1-1.5 0-.7-.1-.4-1.7-.3-2.2.7.4 1.6.7 2.1 1.4-.2.3.2.6-.3.8zm1.1 8.7c-.1.2-.3.3-.5.4v-.1c0-.3-.1-.8.1-1.1 0-.1.1-.1.3-.1h.1c.2 0 .3 0 .5-.1-.2.4-.3.7-.5 1zm.3-1.4h-.5c-.2 0-.3-.1-.4-.3v-1.5h.2v-.1h.3c.2.6.3 1.3.4 1.9zm-.4-3.1c-.1.2-.1.4-.1.6h-.2v-1.7c.4 0 .6 0 .9-.1h.3c-.4.4-.7.8-.9 1.2zm.8-1.6c-.1 0-.2 0-.3-.1h-.1c-.5-.1-.8 0-.8-.8 0-.3-.1-.9.1-1.2.2-.2.5-.1.7-.2.5.4.8.8.8 1.2.1.3 0 .6-.4 1.1z"/></svg>