<svg xmlns="http://www.w3.org/2000/svg" width="150" height="135"><path d="M126.1 48.9c-1.2-1.5-3-4.6-4.9-4.9-1-.1-2 0-3 .3-4.8.7-9 1.6-14 2.4-1.6.3-4.6.5-4.9 1.7-.2.9.9 2 1.5 2.7 2.9 4 5.5 8 8.4 12 1.2 1.5 2.3 3.1 3.2 4.8-12.8 3-25.6 6.1-38.3 9.2-.8-1-1.5-2.1-2-3.2-9.2-15.4-18.5-31.1-27.9-46.5-.8-1.4-1.5-2.9-2.7-3.6-.1-.1-.2-.1-.3-.1h-.1c-.1-.1-.3-.1-.4-.2h-1.4c-.7 0-1.6 0-2.3.1-6.9.6-14.6 1.2-21.8 1.7-1.9.2-3.9 0-4.3 1.7-.1.4-.1.8 0 1.2 1.9 5.1 4.4 10.1 6.7 15.2s4.6 9.9 6.9 14.9c3.3 7.4 7 15 10.4 22.3 1.2 2.8 2.5 5.4 4 8 .2.3.5.6.7.7.3.2.5.4.7.5.4.2.8.4 1.2.5.3.1.6.1.8.1.6 0 1.2 0 1.7-.2 9.4-2.1 18.2-4.7 27.3-6.9 3.4 6.3 7.4 13.3 11 19.7 1.1 2.2 2.4 4.4 4 6.4.6.6 1.3 1.1 2 1.5.6.1 1.1.1 1.7 0 8-2.4 15.8-5.4 23.5-8.2 5.8-2.1 11.5-4.1 17.5-6.3.8-.3 1.8-.6 2.9-1.1 1.1-.5 2.2-.9 2.3-1.7.1-.9-1.2-2.4-1.7-3.1-3.5-4.8-6.9-9.3-10.4-14.1-1.5-1.7-2.8-3.6-4-5.5 2.9-.7 5.9-1.5 8.8-2.3 2.9-.7 6-1.4 8.6-2.4.5-.1.9-.5 1.2-.8v-.5c-4-5.4-8.2-10.6-12.6-16zM68.5 78.1c-.2.5-2.3.7-2.9.9-7.4 1.7-14.3 3.5-21.8 5.1l-1.5-2.9-.2-.5c-3.9-7.9-7.9-16.1-11.8-24.1s-7.7-15.9-11.5-24l-.5-.9c-.3-.6-.6-1-.8-1.6l-.6-1.1.9-.1c6.9-.7 14.3-1.4 21.2-1.8 9.6 16.4 19.2 32.8 28.7 49.5.5.3.8.9.8 1.5zm59.3 10.1c.5.6 1.7 1.9 1.7 2.5-.1.6-1.5.8-2.2 1.1-9.1 3-17.7 6.1-26.9 9.1-2.3.7-4.8 1.6-7.4 2.5-.7.4-1.6.6-2.4.7-.9-.1-1.7-1.7-2.2-2.4-4-6.7-7.7-13.2-11.5-20 9.4-2.5 19-5 28.6-7.4 3.2-.8 6.5-1.5 9.6-2.5h.2l.6-.2.9 1.5.5.7.1.1c3.5 4.8 6.9 9.4 10.4 14.3zm1.2-24.4c-3.9.9-8 2-11.9 2.9-3.1-3.9-5.9-8.1-8.9-12.1-1.1-1.3-2-2.6-2.9-4 .6-.4 1.1-.6 1.7-.5 3.8-.6 7.6-1.4 11.5-2.2.7-.2 1.5-.3 2.2-.3.7.4 1.4 1 1.8 1.7 1.5 1.9 2.9 3.9 4.4 5.6 2.2 2.9 4.1 5.1 5.8 7.5-1.1.7-2.4 1.2-3.7 1.4z" fill="#fff"/></svg>