<svg xmlns="http://www.w3.org/2000/svg" viewBox="0 0 150 135"><path d="M75.38 35.83C42.12 35.83 15.17 50 15.17 67.5s27 31.67 60.21 31.67S135.59 85 135.59 67.5s-26.96-31.67-60.21-31.67zm0 61c-32 0-57.86-13.13-57.86-29.32s25.9-29.32 57.86-29.32 57.86 13.13 57.86 29.32-25.91 29.31-57.86 29.31zM87.1 77L90 62.21c.65-3.33.11-5.82-1.6-7.39s-4.47-2.26-8.59-2.26h-5l1.42-7.32a.94.94 0 0 0-.92-1.12h-6.87a.94.94 0 0 0-.92.76l-3 15.68a8.82 8.82 0 0 0-2.1-4.56c-2-2.3-5.2-3.47-9.46-3.47h-13.3a.94.94 0 0 0-.92.76l-6.17 31.77a.94.94 0 0 0 .92 1.12h6.92a.94.94 0 0 0 .92-.76l1.49-7.68H48a22.23 22.23 0 0 0 6.74-.87 13.2 13.2 0 0 0 4.95-3 15.24 15.24 0 0 0 2.92-3.63l-1.23 6.34a.94.94 0 0 0 .92 1.12h6.86a.94.94 0 0 0 .9-.7l3.39-17.42h4.71c2 0 2.59.4 2.75.57s.45.71.11 2.45l-2.73 14a.94.94 0 0 0 .92 1.12h7a.94.94 0 0 0 .89-.72zM55.3 64.8a7.52 7.52 0 0 1-2.41 4.69c-1.19.92-3.09 1.38-5.65 1.38h-3.08l2.22-11.4h4c2.91 0 4.08.62 4.55 1.14.62.7.75 2.15.36 4.16zm51.23-12.25H93.24a.94.94 0 0 0-.92.76l-6.18 31.75a.94.94 0 0 0 .92 1.12H94a.94.94 0 0 0 .92-.76l1.49-7.68h5.15a22.23 22.23 0 0 0 6.74-.87 13.2 13.2 0 0 0 4.95-3 14.73 14.73 0 0 0 4.63-8.29c.79-4 .16-7.27-1.87-9.59s-5.21-3.44-9.48-3.44zm2.73 12.22a7.52 7.52 0 0 1-2.41 4.69c-1.19.92-3.09 1.38-5.65 1.38h-3.07l2.22-11.4h4c2.91 0 4.08.62 4.56 1.14.6.73.74 2.18.35 4.19z" fill="#fff" fill-rule="evenodd"/></svg>