<svg id="Camada_1" xmlns="http://www.w3.org/2000/svg" width="150" height="135"><style>.st0{fill:#fff}</style><path class="st0" d="M25.2 67.5c0 19.1 10.9 36.5 28 44.9L29.5 47.2c-2.8 6.4-4.3 13.3-4.3 20.3zm83.5-2.5c0-4.9-1.5-9.7-4.2-13.7-2.5-4.2-4.9-7.6-4.9-11.6-.1-4.8 3.6-8.7 8.4-8.8h.6c-20.1-18.6-51.8-17.3-70.2 3-1.8 1.9-3.4 4-4.9 6.3h3.3c5.2 0 13.3-.6 13.3-.6 1.2-.1 2.1.7 2.2 1.9s-.7 2.1-1.9 2.2c0 0-2.7.3-5.7.4l18.2 54 10.7-32.7-7.8-21.3c-2.7-.1-5.2-.4-5.2-.4-1.2-.1-1.9-1-1.9-2.2.1-1.2 1-1.9 2.2-1.9 0 0 8.2.6 13.1.6 5.2 0 13.3-.6 13.3-.6 1.2-.1 2.1.7 2.2 1.9.1 1.2-.7 2.1-1.9 2.2 0 0-2.7.3-5.7.4l18 53.5 4.9-16.6c2.3-5 3.6-10.5 3.9-16zm-32.8 6.8L61 115.2c10 3 20.7 2.7 30.6-.7-.1-.1-.3-.4-.3-.7l-15.4-42zm42.8-28.3c.3 1.6.3 3.4.3 5.1-.1 6.1-1.3 12.2-3.9 17.9L100 110.6c23.5-13.6 31.7-43.2 18.7-67.1z"/><path class="st0" d="M16.8 67.5c0 32.1 26.1 58.2 58.2 58.2s58.2-26.1 58.2-58.2S107.1 9.3 75 9.3 16.8 35.4 16.8 67.5zm2.7 0C19.5 36.9 44.3 12 75 12c30.6 0 55.5 24.8 55.5 55.5 0 30.6-24.8 55.3-55.3 55.5-30.8 0-55.5-24.9-55.7-55.5z"/></svg>